SplineFontDB: 3.0
FontName: Courneuf-Outline
FullName: Courneuf Outline
FamilyName: Courneuf
Weight: Outline
Copyright: Created by Thomas jund @_sacripant with FontForge 2.0 (http://fontforge.sf.net)
UComments: "2013-1-15: Created."
Version: 001.101
ItalicAngle: 0
UnderlinePosition: -100
UnderlineWidth: 45
Ascent: 700
Descent: 200
InvalidEm: 0
sfntRevision: 0x0001199a
LayerCount: 2
Layer: 0 0 "Arri+AOgA-re" 1
Layer: 1 0 "Avant" 0
XUID: [1021 853 1534986351 5375954]
FSType: 0
OS2Version: 0
OS2_WeightWidthSlopeOnly: 0
OS2_UseTypoMetrics: 1
CreationTime: 1358273878
ModificationTime: 1421692665
PfmFamily: 81
TTFWeight: 700
TTFWidth: 5
LineGap: 81
VLineGap: 81
OS2TypoAscent: 0
OS2TypoAOffset: 1
OS2TypoDescent: 0
OS2TypoDOffset: 1
OS2TypoLinegap: 81
OS2WinAscent: 0
OS2WinAOffset: 1
OS2WinDescent: 0
OS2WinDOffset: 1
HheadAscent: 0
HheadAOffset: 1
HheadDescent: 0
HheadDOffset: 1
OS2CapHeight: 0
OS2XHeight: 0
OS2Vendor: 'PfEd'
MarkAttachClasses: 1
DEI: 91125

StartChar: a
Encoding: 97 97 0
Width: 500
VWidth: 0
Flags: W
HStem: 0 25<25 375> 75 25<300 375> 175 25<25 200> 300 25<125 200> 375 25<125 275>
VStem: 0 25<25 175> 100 25<325 375> 200 25<200 300> 275 25<100 375> 375 25<25 75>
LayerCount: 2
Back
Fore
SplineSet
300 100 m 1
 400 100 l 1
 400 0 l 1
 0 0 l 1
 0 200 l 1
 200 200 l 1
 200 300 l 1
 100 300 l 1
 100 400 l 1
 300 400 l 1
 300 100 l 1
375 25 m 1
 375 75 l 1
 275 75 l 1
 275 375 l 1
 125 375 l 1
 125 325 l 1
 225 325 l 1
 225 175 l 1
 25 175 l 1
 25 25 l 1
 375 25 l 1
EndSplineSet
Validated: 1
EndChar

StartChar: b
Encoding: 98 98 1
Width: 600
VWidth: 0
Flags: W
HStem: 0 25<25 375> 75 25<25 100 200 375> 100 25<425 475> 275 25<425 475> 300 25<200 375> 375 25<200 375> 500 25<25 100> 575 25<25 175>
VStem: 0 25<25 75 525 575> 100 25<100 500> 175 25<100 300 400 575> 375 25<25 75 325 375> 400 25<125 275> 475 25<125 275>
LayerCount: 2
Back
Fore
SplineSet
200 300 m 1xcfec
 200 100 l 1xcfec
 400 100 l 1
 400 0 l 1
 0 0 l 1
 0 100 l 1xa7ec
 100 100 l 1
 100 500 l 1
 0 500 l 1
 0 600 l 1
 200 600 l 1
 200 400 l 1
 400 400 l 1
 400 300 l 1
 200 300 l 1xcfec
375 75 m 1xcff4
 175 75 l 1
 175 325 l 1
 375 325 l 1
 375 375 l 1
 175 375 l 1
 175 575 l 1
 25 575 l 1
 25 525 l 1
 125 525 l 1
 125 75 l 1
 25 75 l 1
 25 25 l 1
 375 25 l 1
 375 75 l 1xcff4
400 300 m 1xafec
 500 300 l 1
 500 100 l 1
 400 100 l 1
 400 300 l 1xafec
475 125 m 1
 475 275 l 1
 425 275 l 1xb7ec
 425 125 l 1
 475 125 l 1
EndSplineSet
Validated: 5
EndChar

StartChar: c
Encoding: 99 99 2
Width: 400
VWidth: 0
Flags: W
HStem: 0 25<25 275> 75 25<100 275> 300 25<100 275> 375 25<25 275>
VStem: 0 25<25 375> 75 25<100 300> 275 25<25 75 325 375>
LayerCount: 2
Back
Fore
SplineSet
0 400 m 1
 300 400 l 1
 300 300 l 1
 100 300 l 1
 100 100 l 1
 300 100 l 1
 300 0 l 1
 0 0 l 1
 0 400 l 1
275 325 m 1
 275 375 l 1
 25 375 l 1
 25 25 l 1
 275 25 l 1
 275 75 l 1
 75 75 l 1
 75 325 l 1
 275 325 l 1
EndSplineSet
Validated: 1
EndChar

StartChar: d
Encoding: 100 100 3
Width: 500
VWidth: 0
Flags: W
HStem: 0 25<125 375> 75 25<125 300> 100 25<25 75> 275 25<25 75> 300 25<125 300> 375 25<125 300> 500 25<225 300> 575 25<225 375>
VStem: 0 25<125 275> 75 25<125 275> 100 25<25 75 325 375> 200 25<525 575> 300 25<100 300 400 500> 375 25<25 575>
LayerCount: 2
Back
Fore
SplineSet
0 300 m 1xafbc
 100 300 l 1
 100 100 l 1
 0 100 l 1
 0 300 l 1xafbc
75 125 m 1xb7dc
 75 275 l 1
 25 275 l 1
 25 125 l 1
 75 125 l 1xb7dc
200 600 m 1
 400 600 l 1
 400 0 l 1
 100 0 l 1
 100 100 l 1xafbc
 300 100 l 1
 300 300 l 1
 100 300 l 1
 100 400 l 1xcfbc
 300 400 l 1
 300 500 l 1
 200 500 l 1
 200 600 l 1
375 25 m 1
 375 575 l 1
 225 575 l 1
 225 525 l 1
 325 525 l 1
 325 375 l 1
 125 375 l 1
 125 325 l 1
 325 325 l 1
 325 75 l 1
 125 75 l 1xcfbc
 125 25 l 1
 375 25 l 1
EndSplineSet
Validated: 5
EndChar

StartChar: e
Encoding: 101 101 4
Width: 400
VWidth: 0
Flags: W
HStem: 0 25<125 275> 75 25<125 275> 100 25<25 75> 200 25<100 275> 275 25<25 100> 375 25<125 275>
VStem: 0 25<125 275> 75 25<125 200> 100 25<25 75 300 375> 275 25<25 75 225 375>
LayerCount: 2
Back
Fore
SplineSet
300 200 m 1xbec0
 100 200 l 1xbf40
 100 100 l 1
 0 100 l 1
 0 300 l 1
 100 300 l 1
 100 400 l 1
 300 400 l 1
 300 200 l 1xbec0
75 225 m 1
 275 225 l 1
 275 375 l 1
 125 375 l 1
 125 275 l 1xbec0
 25 275 l 1
 25 125 l 1
 75 125 l 1
 75 225 l 1
300 0 m 1
 100 0 l 1
 100 100 l 1
 300 100 l 1
 300 0 l 1
125 75 m 1xdec0
 125 25 l 1
 275 25 l 1
 275 75 l 1
 125 75 l 1xdec0
EndSplineSet
Validated: 5
EndChar

StartChar: f
Encoding: 102 102 5
Width: 400
VWidth: 0
Flags: W
HStem: 0 25<25 275> 75 25<25 100 200 275> 300 25<25 100 200 275> 375 25<25 100 200 275> 475 25<125 175> 500 25<225 275> 575 25<225 275>
VStem: 0 25<25 75 325 375> 100 25<100 300 400 475> 175 25<100 300 400 475> 200 25<525 575> 275 25<25 75 325 375 525 575>
LayerCount: 2
Back
Fore
SplineSet
300 600 m 1xf7b0
 300 500 l 1
 200 500 l 1
 200 600 l 1
 300 600 l 1xf7b0
275 525 m 1
 275 575 l 1
 225 575 l 1
 225 525 l 1
 275 525 l 1
100 500 m 1
 200 500 l 1xf7b0
 200 400 l 1
 300 400 l 1
 300 300 l 1
 200 300 l 1
 200 100 l 1xf7d0
 300 100 l 1
 300 0 l 1
 0 0 l 1
 0 100 l 1
 100 100 l 1
 100 300 l 1
 0 300 l 1
 0 400 l 1
 100 400 l 1
 100 500 l 1
275 375 m 1
 175 375 l 1
 175 475 l 1
 125 475 l 1
 125 375 l 1
 25 375 l 1
 25 325 l 1
 125 325 l 1
 125 75 l 1
 25 75 l 1
 25 25 l 1
 275 25 l 1
 275 75 l 1
 175 75 l 1
 175 325 l 1xfbd0
 275 325 l 1
 275 375 l 1
EndSplineSet
Validated: 5
EndChar

StartChar: g
Encoding: 103 103 6
Width: 500
VWidth: 0
Flags: W
HStem: -200 25<125 275> -125 25<125 275> -100 25<325 375> 0 25<125 300> 75 25<125 300> 100 25<25 75> 275 25<25 75> 300 25<125 300> 375 25<125 375>
VStem: 0 25<125 275> 75 25<125 275> 100 25<-175 -125 25 75 325 375> 275 25<-175 -125> 300 25<-75 0 100 300> 375 25<-75 375>
LayerCount: 2
Back
Fore
SplineSet
0 300 m 1x95d2
 100 300 l 1
 100 100 l 1
 0 100 l 1
 0 300 l 1x95d2
75 125 m 1x96e2
 75 275 l 1
 25 275 l 1
 25 125 l 1
 75 125 l 1x96e2
100 400 m 1x99d6
 400 400 l 1
 400 -100 l 1
 300 -100 l 1
 300 0 l 1
 100 0 l 1
 100 100 l 1xb5d6
 300 100 l 1
 300 300 l 1
 100 300 l 1
 100 400 l 1x99d6
375 -75 m 1
 375 375 l 1
 125 375 l 1
 125 325 l 1
 325 325 l 1
 325 75 l 1
 125 75 l 1xb9d6
 125 25 l 1
 325 25 l 1
 325 -75 l 1
 375 -75 l 1
100 -200 m 1
 100 -100 l 1
 300 -100 l 1
 300 -200 l 1
 100 -200 l 1
125 -125 m 1xd0da
 125 -175 l 1
 275 -175 l 1
 275 -125 l 1
 125 -125 l 1xd0da
EndSplineSet
Validated: 5
EndChar

StartChar: h
Encoding: 104 104 7
Width: 600
VWidth: 0
Flags: W
HStem: 0 25<25 275 425 475> 75 25<25 100 200 275> 200 25<200 275> 275 25<200 275 425 475> 300 25<325 375> 375 25<325 375> 500 25<25 100> 575 25<25 175>
VStem: 0 25<25 75 525 575> 100 25<100 500> 175 25<100 200 300 575> 275 25<25 75 225 275> 300 25<325 375> 375 25<325 375> 400 25<25 275> 475 25<25 275>
LayerCount: 2
Back
Fore
SplineSet
200 600 m 1xefe9
 200 300 l 1xf7e9
 300 300 l 1
 300 200 l 1
 200 200 l 1
 200 100 l 1
 300 100 l 1
 300 0 l 1
 0 0 l 1
 0 100 l 1
 100 100 l 1
 100 500 l 1
 0 500 l 1
 0 600 l 1
 200 600 l 1xefe9
275 275 m 1xf7f1
 175 275 l 1
 175 575 l 1
 25 575 l 1
 25 525 l 1
 125 525 l 1
 125 75 l 1
 25 75 l 1
 25 25 l 1
 275 25 l 1
 275 75 l 1
 175 75 l 1
 175 225 l 1
 275 225 l 1
 275 275 l 1xf7f1
300 400 m 1xefeb
 400 400 l 1
 400 300 l 1
 300 300 l 1
 300 400 l 1xefeb
375 325 m 1xefed
 375 375 l 1
 325 375 l 1
 325 325 l 1
 375 325 l 1xefed
400 300 m 1xefe3
 500 300 l 1
 500 0 l 1
 400 0 l 1
 400 300 l 1xefe3
475 25 m 1
 475 275 l 1
 425 275 l 1xf7e3
 425 25 l 1
 475 25 l 1
EndSplineSet
Validated: 5
EndChar

StartChar: i
Encoding: 105 105 9
Width: 400
VWidth: 0
Flags: W
HStem: 0 25<25 275> 75 25<25 100 200 275> 300 25<25 100> 375 25<25 175> 500 25<125 175> 575 25<125 175>
VStem: 0 25<25 75 325 375> 100 25<100 300 525 575> 175 25<100 375 525 575> 275 25<25 75>
LayerCount: 2
Back
Fore
SplineSet
200 600 m 1
 200 500 l 1
 100 500 l 1
 100 600 l 1
 200 600 l 1
175 525 m 1
 175 575 l 1
 125 575 l 1
 125 525 l 1
 175 525 l 1
200 100 m 1
 300 100 l 1
 300 0 l 1
 0 0 l 1
 0 100 l 1
 100 100 l 1
 100 300 l 1
 0 300 l 1
 0 400 l 1
 200 400 l 1
 200 100 l 1
275 25 m 1
 275 75 l 1
 175 75 l 1
 175 375 l 1
 25 375 l 1
 25 325 l 1
 125 325 l 1
 125 75 l 1
 25 75 l 1
 25 25 l 1
 275 25 l 1
EndSplineSet
Validated: 1
EndChar

StartChar: z
Encoding: 122 122 10
Width: 500
VWidth: 0
Flags: W
HStem: 0 25<25 375> 75 25<25 100 200 300> 175 25<125 175 325 375> 200 25<25 75 225 275> 300 25<100 200 300 375> 375 25<25 375>
VStem: 0 25<25 75 225 375> 75 25<225 300> 100 25<100 175> 175 25<100 175> 200 25<225 300> 275 25<225 300> 300 25<100 175> 375 25<25 175 325 375>
LayerCount: 2
Back
Fore
SplineSet
400 300 m 1xde84
 300 300 l 1xde94
 300 200 l 1
 200 200 l 1
 200 300 l 1
 100 300 l 1xdf2c
 100 200 l 1
 0 200 l 1
 0 400 l 1
 400 400 l 1
 400 300 l 1xde84
275 325 m 1
 375 325 l 1
 375 375 l 1
 25 375 l 1
 25 225 l 1
 75 225 l 1
 75 325 l 1
 225 325 l 1
 225 225 l 1xdf34
 275 225 l 1
 275 325 l 1
200 100 m 1xde44
 300 100 l 1
 300 200 l 1
 400 200 l 1
 400 0 l 1
 0 0 l 1
 0 100 l 1
 100 100 l 1
 100 200 l 1
 200 200 l 1xdeac
 200 100 l 1xde44
325 75 m 1
 175 75 l 1
 175 175 l 1
 125 175 l 1
 125 75 l 1
 25 75 l 1
 25 25 l 1
 375 25 l 1
 375 175 l 1
 325 175 l 1xeecc
 325 75 l 1
EndSplineSet
Validated: 5
EndChar

StartChar: j
Encoding: 106 106 11
Width: 400
VWidth: 0
Flags: W
HStem: -200 25<25 275> -125 25<25 200> 300 25<25 200> 375 25<25 275> 500 25<225 275> 575 25<225 275>
VStem: 0 25<-175 -125 325 375> 200 25<-100 300 525 575> 275 25<-175 375 525 575>
LayerCount: 2
Back
Fore
SplineSet
200 600 m 1
 300 600 l 1
 300 500 l 1
 200 500 l 1
 200 600 l 1
275 525 m 1
 275 575 l 1
 225 575 l 1
 225 525 l 1
 275 525 l 1
0 300 m 1
 0 400 l 1
 300 400 l 1
 300 -200 l 1
 0 -200 l 1
 0 -100 l 1
 200 -100 l 1
 200 300 l 1
 0 300 l 1
25 375 m 1
 25 325 l 1
 225 325 l 1
 225 -125 l 1
 25 -125 l 1
 25 -175 l 1
 275 -175 l 1
 275 375 l 1
 25 375 l 1
EndSplineSet
Validated: 1
EndChar

StartChar: k
Encoding: 107 107 12
Width: 600
VWidth: 0
Flags: W
HStem: 0 25<25 175 325 475> 75 25<25 100 400 475> 200 25<200 300> 275 25<200 300> 300 25<400 475> 375 25<325 475> 500 25<25 100> 575 25<25 175>
VStem: 0 25<25 75 525 575> 100 25<100 500> 175 25<25 200 300 575> 300 25<25 200 300 375> 375 25<100 300> 475 25<25 75 325 375>
LayerCount: 2
Back
Fore
SplineSet
300 400 m 1xf7fc
 500 400 l 1
 500 300 l 1
 400 300 l 1xeffc
 400 100 l 1
 500 100 l 1
 500 0 l 1
 300 0 l 1
 300 200 l 1
 200 200 l 1
 200 0 l 1
 0 0 l 1
 0 100 l 1
 100 100 l 1
 100 500 l 1
 0 500 l 1
 0 600 l 1
 200 600 l 1
 200 300 l 1
 300 300 l 1
 300 400 l 1xf7fc
475 325 m 1
 475 375 l 1
 325 375 l 1
 325 275 l 1
 175 275 l 1xf7fc
 175 575 l 1
 25 575 l 1
 25 525 l 1
 125 525 l 1
 125 75 l 1
 25 75 l 1
 25 25 l 1
 175 25 l 1
 175 225 l 1
 325 225 l 1
 325 25 l 1
 475 25 l 1
 475 75 l 1
 375 75 l 1
 375 325 l 1
 475 325 l 1
EndSplineSet
Validated: 1
EndChar

StartChar: l
Encoding: 108 108 13
Width: 400
VWidth: 0
Flags: W
HStem: 0 25<25 275> 75 25<25 100 200 275> 500 25<25 100> 575 25<25 175>
VStem: 0 25<25 75 525 575> 100 25<100 500> 175 25<100 575> 275 25<25 75>
LayerCount: 2
Back
Fore
SplineSet
200 100 m 1
 300 100 l 1
 300 0 l 1
 0 0 l 1
 0 100 l 1
 100 100 l 1
 100 500 l 1
 0 500 l 1
 0 600 l 1
 200 600 l 1
 200 100 l 1
275 25 m 1
 275 75 l 1
 175 75 l 1
 175 575 l 1
 25 575 l 1
 25 525 l 1
 125 525 l 1
 125 75 l 1
 25 75 l 1
 25 25 l 1
 275 25 l 1
EndSplineSet
Validated: 1
EndChar

StartChar: m
Encoding: 109 109 14
Width: 600
VWidth: 0
Flags: W
HStem: 0 25<25 75 225 275 425 475> 275 25<225 275 425 475> 300 25<100 175 325 375> 375 25<25 175 325 375>
VStem: 0 25<25 375> 75 25<25 300> 175 25<325 375> 200 25<25 275> 275 25<25 275> 300 25<325 375> 375 25<325 375> 400 25<25 275> 475 25<25 275>
LayerCount: 2
Back
Fore
SplineSet
0 400 m 1xbd08
 200 400 l 1
 200 300 l 1
 100 300 l 1
 100 0 l 1
 0 0 l 1
 0 400 l 1xbd08
175 325 m 1xbe08
 175 375 l 1
 25 375 l 1
 25 25 l 1
 75 25 l 1
 75 325 l 1
 175 325 l 1xbe08
200 0 m 1xbd48
 200 300 l 1
 300 300 l 1
 300 0 l 1
 200 0 l 1xbd48
225 275 m 1xdd88
 225 25 l 1
 275 25 l 1
 275 275 l 1
 225 275 l 1xdd88
300 400 m 1xbc58
 400 400 l 1
 400 300 l 1
 300 300 l 1
 300 400 l 1xbc58
375 325 m 1xbc68
 375 375 l 1
 325 375 l 1
 325 325 l 1
 375 325 l 1xbc68
400 300 m 1xbc18
 500 300 l 1
 500 0 l 1
 400 0 l 1
 400 300 l 1xbc18
475 25 m 1
 475 275 l 1
 425 275 l 1xdc18
 425 25 l 1
 475 25 l 1
EndSplineSet
Validated: 5
EndChar

StartChar: n
Encoding: 110 110 15
Width: 500
VWidth: 0
Flags: W
HStem: 0 25<25 175 325 375> 75 25<25 100> 275 25<325 375> 300 25<25 100 200 275> 375 25<25 275>
VStem: 0 25<25 75 325 375> 100 25<100 300> 175 25<25 300> 275 25<325 375> 300 25<25 275> 375 25<25 275>
LayerCount: 2
Back
Fore
SplineSet
0 400 m 1xdf60
 300 400 l 1
 300 300 l 1
 200 300 l 1
 200 0 l 1
 0 0 l 1
 0 100 l 1
 100 100 l 1
 100 300 l 1
 0 300 l 1
 0 400 l 1xdf60
275 325 m 1xdfa0
 275 375 l 1
 25 375 l 1
 25 325 l 1
 125 325 l 1
 125 75 l 1
 25 75 l 1
 25 25 l 1
 175 25 l 1
 175 325 l 1
 275 325 l 1xdfa0
300 300 m 1xdf60
 400 300 l 1
 400 0 l 1
 300 0 l 1
 300 300 l 1xdf60
375 25 m 1
 375 275 l 1
 325 275 l 1xef60
 325 25 l 1
 375 25 l 1
EndSplineSet
Validated: 5
EndChar

StartChar: o
Encoding: 111 111 16
Width: 500
VWidth: 0
Flags: W
HStem: 0 25<125 275> 75 25<125 275> 100 25<25 75 325 375> 275 25<25 75 325 375> 300 25<125 275> 375 25<125 275>
VStem: 0 25<125 275> 75 25<125 275> 100 25<25 75 325 375> 275 25<25 75 325 375> 300 25<125 275> 375 25<125 275>
LayerCount: 2
Back
Fore
SplineSet
0 300 m 1xae90
 100 300 l 1
 100 100 l 1
 0 100 l 1
 0 300 l 1xae90
75 125 m 1xb710
 75 275 l 1
 25 275 l 1
 25 125 l 1
 75 125 l 1xb710
300 400 m 1x8eb0
 300 300 l 1
 100 300 l 1
 100 400 l 1
 300 400 l 1x8eb0
275 325 m 1x8ed0
 275 375 l 1
 125 375 l 1
 125 325 l 1
 275 325 l 1x8ed0
300 300 m 1xae30
 400 300 l 1
 400 100 l 1
 300 100 l 1
 300 300 l 1xae30
375 125 m 1
 375 275 l 1
 325 275 l 1xb630
 325 125 l 1
 375 125 l 1
100 0 m 1xa6b0
 100 100 l 1
 300 100 l 1
 300 0 l 1
 100 0 l 1xa6b0
125 75 m 1xc6d0
 125 25 l 1
 275 25 l 1
 275 75 l 1
 125 75 l 1xc6d0
EndSplineSet
Validated: 5
EndChar

StartChar: p
Encoding: 112 112 17
Width: 500
VWidth: 0
Flags: W
HStem: -200 25<-75 75> -125 25<-75 0> 0 25<100 275> 75 25<100 275> 100 25<325 375> 275 25<325 375> 300 25<100 275> 375 25<25 275>
VStem: -100 25<-175 -125> 0 25<-100 375> 75 25<-175 0 100 300> 275 25<25 75 325 375> 300 25<125 275> 375 25<125 275>
LayerCount: 2
Back
Fore
SplineSet
300 300 m 1xebec
 400 300 l 1
 400 100 l 1
 300 100 l 1
 300 300 l 1xebec
375 125 m 1
 375 275 l 1
 325 275 l 1xedec
 325 125 l 1
 375 125 l 1
100 300 m 1xebec
 100 100 l 1xf3ec
 300 100 l 1
 300 0 l 1
 100 0 l 1
 100 -200 l 1
 -100 -200 l 1
 -100 -100 l 1
 0 -100 l 1
 0 400 l 1
 300 400 l 1
 300 300 l 1
 100 300 l 1xebec
275 75 m 1xf3f4
 75 75 l 1
 75 325 l 1
 275 325 l 1
 275 375 l 1
 25 375 l 1
 25 -125 l 1
 -75 -125 l 1
 -75 -175 l 1
 75 -175 l 1
 75 25 l 1
 275 25 l 1
 275 75 l 1xf3f4
EndSplineSet
Validated: 5
EndChar

StartChar: q
Encoding: 113 113 18
Width: 500
VWidth: 0
Flags: W
HStem: -200 25<325 475> -125 25<400 475> 0 25<125 300> 75 25<125 300> 100 25<25 75> 275 25<25 75> 300 25<125 300> 375 25<125 375>
VStem: 0 25<125 275> 75 25<125 275> 100 25<25 75 325 375> 300 25<-175 0 100 300> 375 25<-100 375> 475 25<-175 -125>
LayerCount: 2
Back
Fore
SplineSet
0 300 m 1xebbc
 100 300 l 1
 100 100 l 1
 0 100 l 1
 0 300 l 1xebbc
75 125 m 1xeddc
 75 275 l 1
 25 275 l 1
 25 125 l 1
 75 125 l 1xeddc
400 300 m 1xf3bc
 400 -100 l 1
 500 -100 l 1
 500 -200 l 1
 300 -200 l 1
 300 -100 l 1
 300 0 l 1
 100 0 l 1
 100 100 l 1xebbc
 300 100 l 1
 300 300 l 1
 100 300 l 1
 100 400 l 1
 400 400 l 1
 400 300 l 1xf3bc
475 -125 m 1
 375 -125 l 1
 375 325 l 1
 375 375 l 1
 125 375 l 1
 125 325 l 1
 325 325 l 1
 325 75 l 1
 125 75 l 1xf3bc
 125 25 l 1
 325 25 l 1
 325 -125 l 1
 325 -175 l 1
 475 -175 l 1
 475 -125 l 1
EndSplineSet
Validated: 5
EndChar

StartChar: r
Encoding: 114 114 19
Width: 500
VWidth: 0
Flags: W
HStem: 0 25<25 275> 75 25<25 100 200 275> 300 25<25 100 200 375> 375 25<25 375>
VStem: 0 25<25 75 325 375> 100 25<100 300> 175 25<100 300> 275 25<25 75> 375 25<325 375>
LayerCount: 2
Back
Fore
SplineSet
0 400 m 1
 400 400 l 1
 400 300 l 1
 200 300 l 1
 200 100 l 1
 300 100 l 1
 300 0 l 1
 0 0 l 1
 0 100 l 1
 100 100 l 1
 100 300 l 1
 0 300 l 1
 0 400 l 1
375 325 m 1
 375 375 l 1
 25 375 l 1
 25 325 l 1
 125 325 l 1
 125 75 l 1
 25 75 l 1
 25 25 l 1
 275 25 l 1
 275 75 l 1
 175 75 l 1
 175 325 l 1
 375 325 l 1
EndSplineSet
Validated: 1
EndChar

StartChar: v
Encoding: 118 118 20
Width: 500
VWidth: 0
Flags: W
HStem: 0 25<225 275> 100 25<125 200> 175 25<200 275> 200 25<325 375> 300 25<25 100> 375 25<25 175 325 375>
VStem: 0 25<325 375> 100 25<125 300> 175 25<200 375> 200 25<25 100> 275 25<25 175> 300 25<225 375> 375 25<225 375>
LayerCount: 2
Back
Fore
SplineSet
300 400 m 1xdf18
 400 400 l 1
 400 200 l 1
 300 200 l 1
 300 400 l 1xdf18
375 225 m 1
 375 375 l 1
 325 375 l 1
 325 225 l 1
 375 225 l 1
200 400 m 1xdf58
 200 200 l 1xef88
 300 200 l 1
 300 0 l 1
 200 0 l 1
 200 100 l 1
 100 100 l 1
 100 300 l 1
 0 300 l 1
 0 400 l 1
 200 400 l 1xdf58
275 175 m 1xef68
 175 175 l 1
 175 375 l 1xefa8
 25 375 l 1
 25 325 l 1
 125 325 l 1
 125 125 l 1
 225 125 l 1
 225 25 l 1
 275 25 l 1
 275 175 l 1xef68
EndSplineSet
Validated: 5
EndChar

StartChar: s
Encoding: 115 115 21
Width: 300
VWidth: 0
Flags: W
HStem: 0 25<-75 75> 75 25<-75 75> 100 25<125 175> 175 25<125 175> 200 25<25 75> 300 25<100 175> 375 25<25 175>
VStem: -100 25<25 75> 0 25<225 375> 75 25<25 75 225 300> 100 25<125 175> 175 25<125 175 325 375>
LayerCount: 2
Back
Fore
SplineSet
200 300 m 1x8fb0
 100 300 l 1x8fd0
 100 200 l 1
 0 200 l 1
 0 400 l 1
 200 400 l 1
 200 300 l 1x8fb0
75 325 m 1
 175 325 l 1
 175 375 l 1
 25 375 l 1
 25 225 l 1
 75 225 l 1
 75 325 l 1
200 100 m 1xafb0
 100 100 l 1
 100 200 l 1
 200 200 l 1
 200 100 l 1xafb0
125 175 m 1xb7b0
 125 125 l 1
 175 125 l 1
 175 175 l 1
 125 175 l 1xb7b0
-100 0 m 1
 -100 100 l 1
 100 100 l 1
 100 0 l 1
 -100 0 l 1
-75 75 m 1xc7d0
 -75 25 l 1
 75 25 l 1
 75 75 l 1
 -75 75 l 1xc7d0
EndSplineSet
Validated: 5
EndChar

StartChar: t
Encoding: 116 116 22
Width: 500
VWidth: 0
Flags: W
HStem: 0 25<125 275> 75 25<125 275> 100 25<25 75 325 375> 175 25<325 375> 300 25<-75 0 100 275> 375 25<-75 0 100 275> 475 25<25 75>
VStem: -100 25<325 375> 0 25<125 300 400 475> 75 25<125 300 400 475> 100 25<25 75> 275 25<25 75 325 375> 300 25<125 175> 375 25<125 175>
LayerCount: 2
Back
Fore
SplineSet
300 200 m 1xbf8c
 400 200 l 1
 400 100 l 1
 300 100 l 1
 300 200 l 1xbf8c
375 125 m 1
 375 175 l 1
 325 175 l 1
 325 125 l 1
 375 125 l 1
100 0 m 1xbfac
 100 100 l 1
 300 100 l 1
 300 0 l 1
 100 0 l 1xbfac
125 75 m 1xdfb4
 125 25 l 1
 275 25 l 1
 275 75 l 1
 125 75 l 1xdfb4
300 300 m 1xbfcc
 100 300 l 1xbfcc
 100 100 l 1
 0 100 l 1
 0 300 l 1
 -100 300 l 1
 -100 400 l 1
 0 400 l 1
 0 500 l 1
 100 500 l 1xbfa4
 100 400 l 1
 300 400 l 1
 300 300 l 1xbfcc
75 325 m 1
 275 325 l 1
 275 375 l 1xbfd4
 75 375 l 1
 75 475 l 1
 25 475 l 1
 25 375 l 1
 -75 375 l 1
 -75 325 l 1
 25 325 l 1
 25 125 l 1
 75 125 l 1
 75 325 l 1
EndSplineSet
Validated: 5
EndChar

StartChar: u
Encoding: 117 117 23
Width: 400
VWidth: 0
Flags: W
HStem: 0 25<125 275> 75 25<125 200> 100 25<25 75> 300 25<-75 0> 375 25<-75 75 225 275>
VStem: -100 25<325 375> 0 25<125 300> 75 25<125 375> 100 25<25 75> 200 25<100 375> 275 25<25 375>
LayerCount: 2
Back
Fore
SplineSet
-100 400 m 1xbee0
 100 400 l 1
 100 100 l 1
 0 100 l 1
 0 300 l 1
 -100 300 l 1
 -100 400 l 1xbee0
75 125 m 1xbf60
 75 375 l 1
 -75 375 l 1
 -75 325 l 1
 25 325 l 1
 25 125 l 1
 75 125 l 1xbf60
200 400 m 1
 300 400 l 1
 300 0 l 1
 100 0 l 1
 100 100 l 1xbee0
 200 100 l 1xdee0
 200 400 l 1
275 25 m 1
 275 375 l 1
 225 375 l 1
 225 75 l 1
 125 75 l 1xdee0
 125 25 l 1
 275 25 l 1
EndSplineSet
Validated: 5
EndChar

StartChar: w
Encoding: 119 119 24
Width: 600
VWidth: 0
Flags: W
HStem: 0 25<125 175 325 375> 75 25<125 175 325 375> 100 25<25 75 225 275 425 475> 175 25<225 275> 300 25<100 175 325 400> 375 25<25 175 325 475>
VStem: 0 25<125 375> 75 25<125 300> 100 25<25 75> 175 25<25 75 325 375> 200 25<125 175> 275 25<125 175> 300 25<25 75 325 375> 375 25<25 75> 400 25<125 300> 475 25<125 375>
LayerCount: 2
Back
Fore
SplineSet
200 300 m 1xbea1
 100 300 l 1xbf21
 100 100 l 1
 0 100 l 1
 0 400 l 1
 200 400 l 1
 200 300 l 1xbea1
75 325 m 1
 175 325 l 1
 175 375 l 1xbf41
 25 375 l 1
 25 125 l 1
 75 125 l 1
 75 325 l 1
100 0 m 1xbea1
 100 100 l 1
 200 100 l 1
 200 0 l 1
 100 0 l 1xbea1
125 75 m 1xdec1
 125 25 l 1
 175 25 l 1
 175 75 l 1
 125 75 l 1xdec1
200 200 m 1xbe29
 300 200 l 1
 300 100 l 1
 200 100 l 1
 200 200 l 1xbe29
275 125 m 1xbe31
 275 175 l 1
 225 175 l 1
 225 125 l 1
 275 125 l 1xbe31
300 0 m 1xbe0b
 300 100 l 1
 400 100 l 1
 400 0 l 1
 300 0 l 1xbe0b
325 75 m 1xde0d
 325 25 l 1
 375 25 l 1
 375 75 l 1
 325 75 l 1xde0d
300 400 m 1
 500 400 l 1
 500 100 l 1
 400 100 l 1
 400 300 l 1xbe0b
 300 300 l 1
 300 400 l 1
475 125 m 1
 475 375 l 1
 325 375 l 1
 325 325 l 1
 425 325 l 1
 425 125 l 1
 475 125 l 1
EndSplineSet
Validated: 5
EndChar

StartChar: x
Encoding: 120 120 25
Width: 500
VWidth: 0
Flags: W
HStem: 0 25<25 75 325 375> 75 25<25 75 325 375> 100 25<125 275> 275 25<125 275> 300 25<25 75 325 375> 375 25<25 75 325 375>
VStem: 0 25<25 75 325 375> 75 25<25 75 325 375> 100 25<125 275> 275 25<125 275> 300 25<25 75 325 375> 375 25<25 75 325 375>
LayerCount: 2
Back
Fore
SplineSet
0 0 m 1xa690
 0 100 l 1
 100 100 l 1
 100 0 l 1
 0 0 l 1xa690
25 75 m 1xc710
 25 25 l 1
 75 25 l 1
 75 75 l 1
 25 75 l 1xc710
0 400 m 1
 100 400 l 1
 100 300 l 1
 0 300 l 1x8e90
 0 400 l 1
75 325 m 1x8f10
 75 375 l 1
 25 375 l 1
 25 325 l 1
 75 325 l 1x8f10
100 300 m 1xaeb0
 300 300 l 1
 300 100 l 1
 100 100 l 1
 100 300 l 1xaeb0
275 125 m 1xb6d0
 275 275 l 1
 125 275 l 1
 125 125 l 1
 275 125 l 1xb6d0
400 400 m 1
 400 300 l 1
 300 300 l 1
 300 400 l 1x8e30
 400 400 l 1
375 325 m 1
 375 375 l 1
 325 375 l 1
 325 325 l 1
 375 325 l 1
400 0 m 1
 300 0 l 1
 300 100 l 1
 400 100 l 1xa630
 400 0 l 1
325 75 m 1xc630
 325 25 l 1
 375 25 l 1
 375 75 l 1
 325 75 l 1xc630
EndSplineSet
Validated: 5
EndChar

StartChar: y
Encoding: 121 121 26
Width: 600
VWidth: 0
Flags: W
HStem: -200 25<125 275> -125 25<200 275> -25 25<125 175> 0 25<225 275> 75 25<225 275> 100 25<125 175 325 375> 300 25<25 100 400 475> 375 25<25 175 325 475>
VStem: 0 25<325 375> 100 25<-175 -25 125 300> 175 25<-100 -25 125 375> 200 25<25 75> 275 25<-175 -125 25 75> 300 25<125 375> 375 25<125 300> 475 25<325 375>
LayerCount: 2
Back
Fore
SplineSet
300 400 m 1xc7c7
 500 400 l 1
 500 300 l 1
 400 300 l 1
 400 100 l 1
 300 100 l 1
 300 400 l 1xc7c7
475 325 m 1
 475 375 l 1
 325 375 l 1
 325 125 l 1
 375 125 l 1
 375 325 l 1
 475 325 l 1
200 0 m 1xd7d7
 200 100 l 1
 300 100 l 1
 300 0 l 1
 200 0 l 1xd7d7
225 75 m 1xdbdb
 225 25 l 1
 275 25 l 1
 275 75 l 1
 225 75 l 1xdbdb
100 -200 m 1
 100 0 l 1
 200 0 l 1xd3d7
 200 -100 l 1
 300 -100 l 1
 300 -200 l 1xd3e7
 100 -200 l 1
125 -25 m 1xe3eb
 125 -175 l 1
 275 -175 l 1
 275 -125 l 1
 175 -125 l 1
 175 -25 l 1
 125 -25 l 1xe3eb
0 400 m 1
 200 400 l 1
 200 100 l 1
 100 100 l 1xc7d3
 100 300 l 1
 0 300 l 1
 0 400 l 1
175 125 m 1xc7e3
 175 375 l 1
 25 375 l 1
 25 325 l 1
 125 325 l 1
 125 125 l 1
 175 125 l 1xc7e3
EndSplineSet
Validated: 5
EndChar

StartChar: agrave
Encoding: 224 224 27
Width: 500
VWidth: 0
Flags: W
HStem: 0 25<25 375> 75 25<300 375> 175 25<25 200> 300 25<125 200> 375 25<125 275> 400 25<325 375> 475 25<325 375> 500 25<225 275> 575 25<225 275>
VStem: 0 25<25 175> 100 25<325 375> 200 25<200 300 525 575> 275 25<100 375 525 575> 300 25<425 475> 375 25<25 75 425 475>
LayerCount: 2
Back
Fore
SplineSet
100 400 m 1xf4fa
 300 400 l 1xf4f6
 300 100 l 1
 400 100 l 1
 400 0 l 1
 0 0 l 1
 0 200 l 1
 200 200 l 1
 200 300 l 1
 100 300 l 1
 100 400 l 1xf4fa
375 75 m 1
 275 75 l 1
 275 375 l 1
 125 375 l 1xf8fa
 125 325 l 1
 225 325 l 1
 225 175 l 1
 25 175 l 1
 25 25 l 1
 375 25 l 1
 375 75 l 1
200 600 m 1
 300 600 l 1
 300 500 l 1
 200 500 l 1xf1f6
 200 600 l 1
275 525 m 1xf1fa
 275 575 l 1
 225 575 l 1
 225 525 l 1
 275 525 l 1xf1fa
400 500 m 1
 400 400 l 1
 300 400 l 1
 300 500 l 1xf5f6
 400 500 l 1
375 425 m 1
 375 475 l 1
 325 475 l 1xf6f6
 325 425 l 1
 375 425 l 1
EndSplineSet
Validated: 5
EndChar

StartChar: eacute
Encoding: 233 233 28
Width: 400
VWidth: 0
Flags: W
HStem: 0 25<125 275> 75 25<125 275> 100 25<25 75> 200 25<100 275> 275 25<25 100> 375 25<125 275> 400 25<25 75> 475 25<25 75> 500 25<125 175> 575 25<125 175>
VStem: 0 25<125 275 425 475> 75 25<125 200 425 475> 100 25<25 75 300 375 525 575> 175 25<525 575> 275 25<25 75 225 375>
LayerCount: 2
Back
Fore
SplineSet
300 200 m 1xba6e
 100 200 l 1xba76
 100 100 l 1
 0 100 l 1
 0 300 l 1
 100 300 l 1
 100 400 l 1
 300 400 l 1
 300 200 l 1xba6e
75 225 m 1
 275 225 l 1
 275 375 l 1
 125 375 l 1
 125 275 l 1xbc6e
 25 275 l 1
 25 125 l 1
 75 125 l 1
 75 225 l 1
300 0 m 1
 100 0 l 1
 100 100 l 1
 300 100 l 1
 300 0 l 1
125 75 m 1xd86e
 125 25 l 1
 275 25 l 1
 275 75 l 1
 125 75 l 1xd86e
0 500 m 1x9aee
 100 500 l 1
 100 400 l 1
 0 400 l 1
 0 500 l 1x9aee
75 425 m 1x9b76
 75 475 l 1
 25 475 l 1
 25 425 l 1
 75 425 l 1x9b76
200 600 m 1
 200 500 l 1
 100 500 l 1
 100 600 l 1x98ee
 200 600 l 1
175 525 m 1
 175 575 l 1
 125 575 l 1
 125 525 l 1
 175 525 l 1
EndSplineSet
Validated: 5
EndChar

StartChar: egrave
Encoding: 232 232 29
Width: 400
VWidth: 0
Flags: W
HStem: 0 25<125 275> 75 25<125 275> 100 25<25 75> 200 25<100 275> 275 25<25 100> 375 50<225 275> 375 25<125 200> 475 25<225 275> 500 25<125 175> 575 25<125 175>
VStem: 0 25<125 275> 75 25<125 200> 100 25<25 75 300 375 525 575> 175 25<525 575> 200 25<425 475> 275 25<25 75 225 375 425 475>
LayerCount: 2
Back
Fore
SplineSet
300 0 m 1xb869
 100 0 l 1
 100 100 l 1
 300 100 l 1
 300 0 l 1xb869
125 75 m 1xd869
 125 25 l 1
 275 25 l 1
 275 75 l 1
 125 75 l 1xd869
100 600 m 1
 200 600 l 1
 200 500 l 1
 100 500 l 1x98eb
 100 600 l 1
175 525 m 1x98ed
 175 575 l 1
 125 575 l 1
 125 525 l 1
 175 525 l 1x98ed
300 200 m 1
 100 200 l 1xbaf3
 100 100 l 1
 0 100 l 1
 0 300 l 1
 100 300 l 1
 100 400 l 1
 200 400 l 1
 200 500 l 1xbaeb
 300 500 l 1
 300 200 l 1
225 475 m 1x9d63
 225 425 l 1
 275 425 l 1
 275 475 l 1
 225 475 l 1x9d63
75 225 m 1xba71
 275 225 l 1
 275 375 l 1xbc71
 125 375 l 1
 125 275 l 1x9a69
 25 275 l 1
 25 125 l 1
 75 125 l 1
 75 225 l 1xba71
EndSplineSet
Validated: 5
EndChar

StartChar: ecircumflex
Encoding: 234 234 30
Width: 400
VWidth: 0
Flags: W
HStem: 0 25<125 275> 75 25<125 275> 100 25<25 75> 200 25<100 275> 275 25<25 100> 375 25<125 200> 400 25<25 75> 475 25<25 75 225 275> 500 25<125 175> 575 25<125 175>
VStem: 0 25<125 275 425 475> 75 25<125 200 425 475> 100 25<25 75 300 375 525 575> 175 25<525 575> 200 25<425 475> 275 25<25 75 225 375 425 475>
LayerCount: 2
Back
Fore
SplineSet
300 0 m 1xb869
 100 0 l 1
 100 100 l 1
 300 100 l 1
 300 0 l 1xb869
125 75 m 1xd869
 125 25 l 1
 275 25 l 1
 275 75 l 1
 125 75 l 1xd869
0 500 m 1x9ae9
 100 500 l 1
 100 400 l 1
 0 400 l 1
 0 500 l 1x9ae9
75 425 m 1x9b71
 75 475 l 1
 25 475 l 1
 25 425 l 1
 75 425 l 1x9b71
200 600 m 1x98eb
 200 500 l 1
 100 500 l 1
 100 600 l 1
 200 600 l 1x98eb
175 525 m 1x98ed
 175 575 l 1
 125 575 l 1
 125 525 l 1
 175 525 l 1x98ed
300 200 m 1
 100 200 l 1x9cf3
 100 100 l 1
 0 100 l 1
 0 300 l 1
 100 300 l 1
 100 400 l 1xbae9
 200 400 l 1
 200 500 l 1x9ceb
 300 500 l 1
 300 200 l 1
225 475 m 1x9b63
 225 425 l 1
 275 425 l 1
 275 475 l 1
 225 475 l 1x9b63
75 225 m 1xbc71
 275 225 l 1
 275 375 l 1
 125 375 l 1
 125 275 l 1xbc69
 25 275 l 1
 25 125 l 1
 75 125 l 1
 75 225 l 1xbc71
EndSplineSet
Validated: 5
EndChar

StartChar: idieresis
Encoding: 239 239 31
Width: 400
VWidth: 0
Flags: W
HStem: 0 25<25 275> 75 25<25 100 200 275> 300 25<25 100> 375 25<25 175> 500 25<25 75 225 275> 575 25<25 75 225 275>
VStem: 0 25<25 75 325 375 525 575> 75 25<525 575> 100 25<100 300> 175 25<100 375> 200 25<525 575> 275 25<25 75 525 575>
LayerCount: 2
Back
Fore
SplineSet
100 600 m 1xfe90
 100 500 l 1
 0 500 l 1
 0 600 l 1
 100 600 l 1xfe90
75 525 m 1xff10
 75 575 l 1
 25 575 l 1
 25 525 l 1
 75 525 l 1xff10
200 600 m 1xfe30
 300 600 l 1
 300 500 l 1
 200 500 l 1
 200 600 l 1xfe30
275 525 m 1
 275 575 l 1
 225 575 l 1
 225 525 l 1
 275 525 l 1
200 400 m 1
 200 100 l 1
 300 100 l 1
 300 0 l 1
 0 0 l 1
 0 100 l 1
 100 100 l 1
 100 300 l 1xfed0
 0 300 l 1
 0 400 l 1
 200 400 l 1
275 75 m 1
 175 75 l 1
 175 375 l 1
 25 375 l 1
 25 325 l 1
 125 325 l 1
 125 75 l 1
 25 75 l 1
 25 25 l 1
 275 25 l 1
 275 75 l 1
EndSplineSet
Validated: 1
EndChar

StartChar: ugrave
Encoding: 249 249 32
Width: 500
VWidth: 0
Flags: W
HStem: 0 25<225 375> 75 25<225 300> 100 25<125 175> 300 25<25 100> 375 50<325 375> 375 25<25 175> 475 25<325 375> 500 25<225 275> 575 25<225 275>
VStem: 0 25<325 375> 100 25<125 300> 175 25<125 375> 200 25<25 75 525 575> 275 25<525 575> 300 25<100 375 425 475> 375 25<25 375 425 475>
LayerCount: 2
Back
Fore
SplineSet
0 400 m 1xb4e9
 200 400 l 1
 200 100 l 1
 100 100 l 1
 100 300 l 1
 0 300 l 1
 0 400 l 1xb4e9
175 125 m 1xb4f1
 175 375 l 1
 25 375 l 1
 25 325 l 1
 125 325 l 1
 125 125 l 1
 175 125 l 1xb4f1
200 600 m 1x91eb
 300 600 l 1
 300 500 l 1
 200 500 l 1
 200 600 l 1x91eb
275 525 m 1x91ed
 275 575 l 1
 225 575 l 1
 225 525 l 1
 275 525 l 1x91ed
300 500 m 1xd1eb
 400 500 l 1
 400 0 l 1
 200 0 l 1
 200 100 l 1xb1eb
 300 100 l 1
 300 500 l 1xd1eb
375 25 m 1
 375 375 l 1
 325 375 l 1
 325 75 l 1
 225 75 l 1xd8eb
 225 25 l 1
 375 25 l 1
375 425 m 1
 375 475 l 1
 325 475 l 1x9ae3
 325 425 l 1
 375 425 l 1
EndSplineSet
Validated: 5
EndChar

StartChar: ccedilla
Encoding: 231 231 33
Width: 400
VWidth: 0
Flags: W
HStem: -200 25<25 175> -125 25<25 100> 0 25<25 100 200 275> 75 25<100 275> 300 25<100 275> 375 25<25 275>
VStem: 0 25<-175 -125 25 375> 75 25<100 300> 100 25<-100 -25> 175 25<-175 -25> 275 25<25 75 325 375>
LayerCount: 2
Back
Fore
SplineSet
0 400 m 1xfee0
 300 400 l 1
 300 300 l 1
 100 300 l 1
 100 100 l 1xff60
 300 100 l 1
 300 0 l 1
 200 0 l 1
 200 -200 l 1
 0 -200 l 1
 0 -100 l 1
 100 -100 l 1
 100 0 l 1
 0 0 l 1
 0 400 l 1xfee0
175 -175 m 1
 175 -25 l 1
 125 -25 l 1
 125 -125 l 1xfee0
 25 -125 l 1
 25 -175 l 1
 175 -175 l 1
275 325 m 1
 275 375 l 1
 25 375 l 1
 25 25 l 1
 275 25 l 1
 275 75 l 1
 75 75 l 1
 75 325 l 1xff60
 275 325 l 1
EndSplineSet
Validated: 1
EndChar

StartChar: A
Encoding: 65 65 34
Width: 600
VWidth: 0
Flags: W
HStem: 0 25<25 175 325 475> 75 25<100 175 325 400> 175 25<25 75 425 475> 200 25<125 375> 275 25<200 300> 375 25<125 175 325 375> 400 25<225 275> 500 25<125 200> 575 25<125 275>
VStem: 0 25<25 175> 75 25<100 175> 100 25<225 375 525 575> 175 25<25 75 300 375> 200 25<425 500> 275 25<425 575> 300 25<25 75 300 375> 375 25<225 375> 400 25<100 175> 475 25<25 175>
LayerCount: 2
Back
Fore
SplineSet
300 600 m 1xcbd520
 300 400 l 1
 200 400 l 1
 200 500 l 1
 100 500 l 1
 100 600 l 1
 300 600 l 1xcbd520
275 425 m 1xcbd620
 275 575 l 1
 125 575 l 1
 125 525 l 1
 225 525 l 1
 225 425 l 1
 275 425 l 1xcbd620
300 400 m 1xdbc920
 400 400 l 1
 400 200 l 1
 100 200 l 1
 100 400 l 1
 200 400 l 1xdbd560
 200 300 l 1
 300 300 l 1
 300 400 l 1xdbc920
375 225 m 1xddd9a0
 375 375 l 1
 325 375 l 1
 325 275 l 1
 175 275 l 1
 175 375 l 1
 125 375 l 1
 125 225 l 1
 375 225 l 1xddd9a0
0 0 m 1
 0 200 l 1
 100 200 l 1xd9d420
 100 100 l 1
 200 100 l 1
 200 0 l 1xd9e420
 0 0 l 1
25 175 m 1xe9e820
 25 25 l 1
 175 25 l 1
 175 75 l 1
 75 75 l 1
 75 175 l 1
 25 175 l 1xe9e820
400 200 m 1xd9c160
 500 200 l 1
 500 0 l 1
 300 0 l 1
 300 100 l 1
 400 100 l 1
 400 200 l 1xd9c160
475 25 m 1
 475 175 l 1
 425 175 l 1xe9c160
 425 75 l 1
 325 75 l 1
 325 25 l 1
 475 25 l 1
EndSplineSet
Validated: 5
EndChar

StartChar: B
Encoding: 66 66 35
Width: 600
VWidth: 0
Flags: W
HStem: 0 25<25 375> 75 25<25 100 200 375> 100 25<425 475> 275 25<425 475> 300 25<200 375> 375 25<200 375> 400 25<425 475> 475 25<425 475> 500 25<25 100 200 375> 575 25<25 375>
VStem: 0 25<25 75 525 575> 100 25<100 500> 175 25<100 300 400 500> 375 25<25 75 325 375 525 575> 400 25<125 275 425 475> 475 25<125 275 425 475>
LayerCount: 2
Back
Fore
SplineSet
200 400 m 1xc4fb
 400 400 l 1
 400 300 l 1
 200 300 l 1
 200 100 l 1xca7b
 400 100 l 1
 400 0 l 1
 0 0 l 1
 0 100 l 1xa07b
 100 100 l 1
 100 500 l 1
 0 500 l 1
 0 600 l 1
 400 600 l 1
 400 500 l 1
 200 500 l 1
 200 400 l 1xc4fb
375 325 m 1xccfd
 375 375 l 1
 175 375 l 1
 175 525 l 1
 375 525 l 1
 375 575 l 1
 25 575 l 1
 25 525 l 1
 125 525 l 1
 125 75 l 1
 25 75 l 1
 25 25 l 1
 375 25 l 1
 375 75 l 1
 175 75 l 1
 175 325 l 1
 375 325 l 1xccfd
500 400 m 1x82fb
 400 400 l 1
 400 500 l 1
 500 500 l 1
 500 400 l 1x82fb
425 475 m 1x837b
 425 425 l 1
 475 425 l 1
 475 475 l 1
 425 475 l 1x837b
500 100 m 1xa87b
 400 100 l 1
 400 300 l 1
 500 300 l 1
 500 100 l 1xa87b
425 275 m 1xb07b
 425 125 l 1
 475 125 l 1
 475 275 l 1
 425 275 l 1xb07b
EndSplineSet
Validated: 5
EndChar

StartChar: C
Encoding: 67 67 36
Width: 400
VWidth: 0
Flags: W
HStem: 0 25<125 275> 75 25<125 275> 100 25<25 75> 400 25<225 275> 500 25<100 200> 575 25<25 275>
VStem: 0 25<125 575> 75 25<125 500> 100 25<25 75> 200 25<425 500> 275 25<25 75 425 575>
LayerCount: 2
Back
Fore
SplineSet
300 400 m 1xbee0
 200 400 l 1
 200 500 l 1
 100 500 l 1xbf60
 100 100 l 1
 0 100 l 1
 0 600 l 1
 300 600 l 1
 300 400 l 1xbee0
75 525 m 1
 225 525 l 1
 225 425 l 1
 275 425 l 1
 275 575 l 1
 25 575 l 1
 25 125 l 1
 75 125 l 1
 75 525 l 1
300 0 m 1
 100 0 l 1
 100 100 l 1xbee0
 300 100 l 1
 300 0 l 1
125 75 m 1xdee0
 125 25 l 1
 275 25 l 1
 275 75 l 1
 125 75 l 1xdee0
EndSplineSet
Validated: 5
EndChar

StartChar: D
Encoding: 68 68 37
Width: 600
VWidth: 0
Flags: W
HStem: 0 25<25 375> 75 25<25 100 200 375> 100 25<425 475> 475 25<425 475> 500 25<25 100 200 375> 575 25<25 375>
VStem: 0 25<25 75 525 575> 100 25<100 500> 175 25<100 500> 375 25<25 75 525 575> 400 25<125 475> 475 25<125 475>
LayerCount: 2
Back
Fore
SplineSet
200 500 m 1xcfb0
 200 100 l 1xcfb0
 400 100 l 1
 400 0 l 1
 0 0 l 1
 0 100 l 1xa7b0
 100 100 l 1
 100 500 l 1
 0 500 l 1
 0 600 l 1
 400 600 l 1
 400 500 l 1
 200 500 l 1xcfb0
375 75 m 1xcfd0
 175 75 l 1
 175 525 l 1
 375 525 l 1
 375 575 l 1
 25 575 l 1
 25 525 l 1
 125 525 l 1
 125 75 l 1
 25 75 l 1
 25 25 l 1
 375 25 l 1
 375 75 l 1xcfd0
400 500 m 1xafb0
 500 500 l 1
 500 100 l 1
 400 100 l 1
 400 500 l 1xafb0
475 125 m 1
 475 475 l 1
 425 475 l 1xb7b0
 425 125 l 1
 475 125 l 1
EndSplineSet
Validated: 5
EndChar

StartChar: E
Encoding: 69 69 38
Width: 600
VWidth: 0
Flags: W
HStem: 0 25<25 475> 75 25<25 100 200 400> 175 25<425 475> 300 25<200 275> 375 25<200 275> 400 25<425 475> 500 25<25 100 200 400> 575 25<25 475>
VStem: 0 25<25 75 525 575> 100 25<100 500> 175 25<100 300 400 500> 275 25<325 375> 400 25<100 175 425 500> 475 25<25 175 425 575>
LayerCount: 2
Back
Fore
SplineSet
0 600 m 1xf7fc
 500 600 l 1
 500 400 l 1
 400 400 l 1xf7fc
 400 500 l 1
 200 500 l 1
 200 400 l 1xfbfc
 300 400 l 1
 300 300 l 1
 200 300 l 1
 200 100 l 1
 400 100 l 1
 400 200 l 1
 500 200 l 1
 500 0 l 1
 0 0 l 1
 0 100 l 1
 100 100 l 1
 100 500 l 1
 0 500 l 1
 0 600 l 1xf7fc
475 425 m 1
 475 575 l 1
 25 575 l 1
 25 525 l 1
 125 525 l 1
 125 75 l 1
 25 75 l 1
 25 25 l 1
 475 25 l 1
 475 175 l 1
 425 175 l 1
 425 75 l 1
 175 75 l 1
 175 325 l 1
 275 325 l 1
 275 375 l 1
 175 375 l 1xfbfc
 175 525 l 1
 425 525 l 1
 425 425 l 1
 475 425 l 1
EndSplineSet
Validated: 1
EndChar

StartChar: F
Encoding: 70 70 39
Width: 600
VWidth: 0
Flags: W
HStem: 0 25<25 275> 75 25<25 100 200 275> 300 25<200 275> 375 25<200 275> 400 25<425 475> 500 25<25 100 200 400> 575 25<25 475>
VStem: 0 25<25 75 525 575> 100 25<100 500> 175 25<100 300 400 500> 275 25<25 75 325 375> 400 25<425 500> 475 25<425 575>
LayerCount: 2
Back
Fore
SplineSet
0 600 m 1xeff8
 500 600 l 1
 500 400 l 1
 400 400 l 1xeff8
 400 500 l 1
 200 500 l 1
 200 400 l 1xf7f8
 300 400 l 1
 300 300 l 1
 200 300 l 1
 200 100 l 1
 300 100 l 1
 300 0 l 1
 0 0 l 1
 0 100 l 1
 100 100 l 1
 100 500 l 1
 0 500 l 1
 0 600 l 1xeff8
475 425 m 1
 475 575 l 1
 25 575 l 1
 25 525 l 1
 125 525 l 1
 125 75 l 1
 25 75 l 1
 25 25 l 1
 275 25 l 1
 275 75 l 1
 175 75 l 1
 175 325 l 1
 275 325 l 1
 275 375 l 1
 175 375 l 1xf7f8
 175 525 l 1
 425 525 l 1
 425 425 l 1
 475 425 l 1
EndSplineSet
Validated: 1
EndChar

StartChar: G
Encoding: 71 71 40
Width: 500
VWidth: 0
Flags: W
HStem: 0 25<125 275> 75 25<125 200> 100 25<25 75> 200 25<300 375> 275 25<225 375> 500 25<100 275> 575 25<25 275>
VStem: 0 25<125 575> 75 25<125 500> 100 25<25 75> 200 25<100 275> 275 25<25 200 525 575> 375 25<225 275>
LayerCount: 2
Back
Fore
SplineSet
200 300 m 1xdf78
 400 300 l 1
 400 200 l 1
 300 200 l 1
 300 0 l 1
 100 0 l 1
 100 100 l 1xbf78
 200 100 l 1
 200 300 l 1xdf78
375 225 m 1
 375 275 l 1
 225 275 l 1
 225 75 l 1
 125 75 l 1xdf78
 125 25 l 1
 275 25 l 1
 275 225 l 1
 375 225 l 1
300 500 m 1
 100 500 l 1xbfb8
 100 100 l 1
 0 100 l 1xbf78
 0 600 l 1
 300 600 l 1
 300 500 l 1
75 525 m 1
 275 525 l 1
 275 575 l 1
 25 575 l 1
 25 125 l 1
 75 125 l 1
 75 525 l 1
EndSplineSet
Validated: 5
EndChar

StartChar: H
Encoding: 72 72 41
Width: 600
VWidth: 0
Flags: W
HStem: 0 25<25 275 425 475> 75 25<25 100 200 275> 300 25<200 400> 375 25<200 400> 500 25<25 100 200 275> 575 25<25 275 425 475>
VStem: 0 25<25 75 525 575> 100 25<100 500> 175 25<100 300 400 500> 275 25<25 75 525 575> 400 25<25 300 400 575> 475 25<25 575>
LayerCount: 2
Back
Fore
SplineSet
400 600 m 1
 500 600 l 1
 500 0 l 1
 400 0 l 1
 400 300 l 1
 200 300 l 1
 200 100 l 1
 300 100 l 1
 300 0 l 1
 0 0 l 1
 0 100 l 1
 100 100 l 1
 100 500 l 1
 0 500 l 1
 0 600 l 1
 300 600 l 1
 300 500 l 1
 200 500 l 1
 200 400 l 1
 400 400 l 1
 400 600 l 1
475 25 m 1
 475 575 l 1
 425 575 l 1
 425 375 l 1
 175 375 l 1
 175 525 l 1
 275 525 l 1
 275 575 l 1
 25 575 l 1
 25 525 l 1
 125 525 l 1
 125 75 l 1
 25 75 l 1
 25 25 l 1
 275 25 l 1
 275 75 l 1
 175 75 l 1
 175 325 l 1
 425 325 l 1
 425 25 l 1
 475 25 l 1
EndSplineSet
Validated: 1
EndChar

StartChar: I
Encoding: 73 73 42
Width: 400
VWidth: 0
Flags: W
HStem: 0 25<25 275> 75 25<25 100 200 275> 500 25<25 100 200 275> 575 25<25 275>
VStem: 0 25<25 75 525 575> 100 25<100 500> 175 25<100 500> 275 25<25 75 525 575>
LayerCount: 2
Back
Fore
SplineSet
0 600 m 1
 300 600 l 1
 300 500 l 1
 200 500 l 1
 200 100 l 1
 300 100 l 1
 300 0 l 1
 0 0 l 1
 0 100 l 1
 100 100 l 1
 100 500 l 1
 0 500 l 1
 0 600 l 1
275 525 m 1
 275 575 l 1
 25 575 l 1
 25 525 l 1
 125 525 l 1
 125 75 l 1
 25 75 l 1
 25 25 l 1
 275 25 l 1
 275 75 l 1
 175 75 l 1
 175 525 l 1
 275 525 l 1
EndSplineSet
Validated: 1
EndChar

StartChar: J
Encoding: 74 74 43
Width: 500
VWidth: 0
Flags: W
HStem: 0 25<125 175> 75 25<125 175> 100 25<25 75 225 275> 275 25<25 75> 500 25<125 200 300 375> 575 25<125 375>
VStem: 0 25<125 275> 75 25<125 275> 100 25<25 75 525 575> 175 25<25 75> 200 25<125 500> 275 25<125 500> 375 25<525 575>
LayerCount: 2
Back
Fore
SplineSet
100 0 m 1xbeb8
 100 100 l 1
 200 100 l 1
 200 0 l 1
 100 0 l 1xbeb8
125 75 m 1xded8
 125 25 l 1
 175 25 l 1
 175 75 l 1
 125 75 l 1xded8
100 600 m 1
 400 600 l 1
 400 500 l 1
 300 500 l 1
 300 100 l 1
 200 100 l 1
 200 500 l 1xbeb8
 100 500 l 1
 100 600 l 1
375 525 m 1
 375 575 l 1
 125 575 l 1
 125 525 l 1
 225 525 l 1
 225 125 l 1
 275 125 l 1
 275 525 l 1
 375 525 l 1
0 300 m 1
 100 300 l 1
 100 100 l 1
 0 100 l 1
 0 300 l 1
75 125 m 1xbf18
 75 275 l 1
 25 275 l 1
 25 125 l 1
 75 125 l 1xbf18
EndSplineSet
Validated: 5
EndChar

StartChar: K
Encoding: 75 75 44
Width: 601
VWidth: 0
Flags: W
HStem: 0 25<25 175 325 475> 75 25<25 100 400 475> 200 25<200 300> 275 25<300 375> 375 25<200 275> 400 25<325 375> 500 25<25 100 400 475> 575 25<25 175 325 475>
VStem: 0 25<25 75 525 575> 100 25<100 500> 175 25<25 200 400 575> 275 25<300 375> 300 25<25 200 425 575> 375 25<100 275 425 500> 475 25<25 75 525 575>
LayerCount: 2
Back
Fore
SplineSet
400 500 m 1xf7ee
 400 400 l 1
 300 400 l 1
 300 600 l 1
 500 600 l 1
 500 500 l 1
 400 500 l 1xf7ee
375 425 m 1
 375 525 l 1
 475 525 l 1
 475 575 l 1
 325 575 l 1
 325 425 l 1
 375 425 l 1
200 400 m 1xfbee
 300 400 l 1xf7ee
 300 300 l 1xf7f6
 400 300 l 1
 400 100 l 1
 500 100 l 1
 500 0 l 1
 300 0 l 1
 300 200 l 1
 200 200 l 1
 200 0 l 1
 0 0 l 1
 0 100 l 1
 100 100 l 1
 100 500 l 1
 0 500 l 1
 0 600 l 1
 200 600 l 1
 200 400 l 1xfbee
375 275 m 1
 275 275 l 1
 275 375 l 1
 175 375 l 1xfbf6
 175 575 l 1
 25 575 l 1
 25 525 l 1
 125 525 l 1
 125 75 l 1
 25 75 l 1
 25 25 l 1
 175 25 l 1
 175 225 l 1
 325 225 l 1
 325 25 l 1
 475 25 l 1
 475 75 l 1
 375 75 l 1
 375 275 l 1
EndSplineSet
Validated: 5
EndChar

StartChar: L
Encoding: 76 76 45
Width: 600
VWidth: 0
Flags: W
HStem: 0 25<25 475> 75 25<25 100 200 400> 175 25<425 475> 500 25<25 100 200 275> 575 25<25 275>
VStem: 0 25<25 75 525 575> 100 25<100 500> 175 25<100 500> 275 25<525 575> 400 25<100 175> 475 25<25 175>
LayerCount: 2
Back
Fore
SplineSet
400 200 m 1
 500 200 l 1
 500 0 l 1
 0 0 l 1
 0 100 l 1
 100 100 l 1
 100 500 l 1
 0 500 l 1
 0 600 l 1
 300 600 l 1
 300 500 l 1
 200 500 l 1
 200 100 l 1
 400 100 l 1
 400 200 l 1
475 25 m 1
 475 175 l 1
 425 175 l 1
 425 75 l 1
 175 75 l 1
 175 525 l 1
 275 525 l 1
 275 575 l 1
 25 575 l 1
 25 525 l 1
 125 525 l 1
 125 75 l 1
 25 75 l 1
 25 25 l 1
 475 25 l 1
EndSplineSet
Validated: 1
EndChar

StartChar: M
Encoding: 77 77 46
Width: 600
VWidth: 0
Flags: W
HStem: 0 25<25 175 325 475> 75 25<100 175 325 400> 200 25<225 275> 275 25<225 275> 300 25<100 175 325 400> 575 25<25 175 325 475>
VStem: 0 25<25 575> 75 25<100 300> 175 25<25 75 325 575> 200 25<225 275> 275 25<225 275> 300 25<25 75 325 575> 400 25<100 300> 475 25<25 575>
LayerCount: 2
Back
Fore
SplineSet
0 600 m 1xef4c
 200 600 l 1
 200 300 l 1
 100 300 l 1
 100 100 l 1
 200 100 l 1
 200 0 l 1
 0 0 l 1
 0 600 l 1xef4c
175 325 m 1xef8c
 175 575 l 1
 25 575 l 1
 25 25 l 1
 175 25 l 1
 175 75 l 1
 75 75 l 1
 75 325 l 1
 175 325 l 1xef8c
300 600 m 1xef1c
 500 600 l 1
 500 0 l 1
 300 0 l 1
 300 100 l 1
 400 100 l 1
 400 300 l 1
 300 300 l 1
 300 600 l 1xef1c
475 25 m 1
 475 575 l 1
 325 575 l 1
 325 325 l 1
 425 325 l 1
 425 75 l 1
 325 75 l 1
 325 25 l 1
 475 25 l 1
200 200 m 1xef5c
 200 300 l 1
 300 300 l 1
 300 200 l 1
 200 200 l 1xef5c
225 275 m 1xf76c
 225 225 l 1
 275 225 l 1
 275 275 l 1
 225 275 l 1xf76c
EndSplineSet
Validated: 5
EndChar

StartChar: N
Encoding: 78 78 47
Width: 600
VWidth: 0
Flags: W
HStem: 0 25<25 275 425 475> 75 25<25 100 200 275> 100 25<325 400> 275 25<325 400> 300 25<200 275> 475 25<200 275> 500 25<25 100 325 400> 575 25<25 175 325 475>
VStem: 0 25<25 75 525 575> 100 25<100 500> 175 25<100 300 500 575> 275 25<25 75 325 475> 300 25<125 275 525 575> 400 25<25 100 300 500> 475 25<25 575>
LayerCount: 2
Back
Fore
SplineSet
200 300 m 1x8bee
 200 100 l 1xcbee
 300 100 l 1
 300 0 l 1
 0 0 l 1
 0 100 l 1xa1ee
 100 100 l 1
 100 500 l 1
 0 500 l 1xc3ee
 0 600 l 1
 200 600 l 1
 200 500 l 1x85ee
 300 500 l 1
 300 300 l 1
 200 300 l 1x8bee
275 75 m 1xc3f6
 175 75 l 1
 175 325 l 1
 275 325 l 1
 275 475 l 1
 175 475 l 1xcdf6
 175 575 l 1
 25 575 l 1
 25 525 l 1
 125 525 l 1
 125 75 l 1
 25 75 l 1
 25 25 l 1
 275 25 l 1
 275 75 l 1xc3f6
300 600 m 1x93ee
 500 600 l 1
 500 0 l 1
 400 0 l 1
 400 100 l 1
 300 100 l 1
 300 300 l 1xabee
 400 300 l 1
 400 500 l 1
 300 500 l 1
 300 600 l 1x93ee
475 25 m 1
 475 575 l 1
 325 575 l 1
 325 525 l 1
 425 525 l 1
 425 275 l 1
 325 275 l 1xb3ee
 325 125 l 1
 425 125 l 1
 425 25 l 1
 475 25 l 1
EndSplineSet
Validated: 5
EndChar

StartChar: O
Encoding: 79 79 48
Width: 500
VWidth: 0
Flags: W
HStem: 0 25<125 275> 75 25<125 275> 100 25<25 75 325 375> 475 25<25 75 325 375> 500 25<125 275> 575 25<125 275>
VStem: 0 25<125 475> 75 25<125 475> 100 25<25 75 525 575> 275 25<25 75 525 575> 300 25<125 475> 375 25<125 475>
LayerCount: 2
Back
Fore
SplineSet
0 500 m 1xae90
 100 500 l 1
 100 100 l 1
 0 100 l 1
 0 500 l 1xae90
75 125 m 1xb710
 75 475 l 1
 25 475 l 1
 25 125 l 1
 75 125 l 1xb710
300 600 m 1x8eb0
 300 500 l 1
 100 500 l 1
 100 600 l 1
 300 600 l 1x8eb0
275 525 m 1x8ed0
 275 575 l 1
 125 575 l 1
 125 525 l 1
 275 525 l 1x8ed0
300 500 m 1xae30
 400 500 l 1
 400 100 l 1
 300 100 l 1
 300 500 l 1xae30
375 125 m 1
 375 475 l 1
 325 475 l 1xb630
 325 125 l 1
 375 125 l 1
100 0 m 1xa6b0
 100 100 l 1
 300 100 l 1
 300 0 l 1
 100 0 l 1xa6b0
125 75 m 1xc6d0
 125 25 l 1
 275 25 l 1
 275 75 l 1
 125 75 l 1xc6d0
EndSplineSet
Validated: 5
EndChar

StartChar: P
Encoding: 80 80 49
Width: 600
VWidth: 0
Flags: W
HStem: 0 25<25 275> 75 25<25 100 200 275> 200 25<200 375> 275 25<200 375> 300 25<425 475> 475 25<425 475> 500 25<25 100 200 375> 575 25<25 375>
VStem: 0 25<25 75 525 575> 100 25<100 500> 175 25<100 200 300 500> 275 25<25 75> 375 25<225 275 525 575> 400 25<325 475> 475 25<325 475>
LayerCount: 2
Back
Fore
SplineSet
200 500 m 1xebf6
 200 300 l 1xf3f6
 400 300 l 1
 400 200 l 1
 200 200 l 1
 200 100 l 1
 300 100 l 1
 300 0 l 1
 0 0 l 1
 0 100 l 1
 100 100 l 1
 100 500 l 1
 0 500 l 1
 0 600 l 1
 400 600 l 1
 400 500 l 1
 200 500 l 1xebf6
375 275 m 1xf3fa
 175 275 l 1
 175 525 l 1
 375 525 l 1
 375 575 l 1
 25 575 l 1
 25 525 l 1
 125 525 l 1
 125 75 l 1
 25 75 l 1
 25 25 l 1
 275 25 l 1
 275 75 l 1
 175 75 l 1
 175 225 l 1
 375 225 l 1
 375 275 l 1xf3fa
400 500 m 1xebf6
 500 500 l 1
 500 300 l 1
 400 300 l 1
 400 500 l 1xebf6
475 325 m 1
 475 475 l 1
 425 475 l 1xedf6
 425 325 l 1
 475 325 l 1
EndSplineSet
Validated: 5
EndChar

StartChar: Q
Encoding: 81 81 50
Width: 500
VWidth: 0
Flags: W
HStem: -100 25<225 375> -25 25<300 375> 0 25<125 200> 75 25<125 275> 100 25<25 75 325 375> 475 25<25 75 325 375> 500 25<125 275> 575 25<125 275>
VStem: 0 25<125 475> 75 25<125 475> 100 25<25 75 525 575> 200 25<-75 0> 275 25<0 75 525 575> 300 25<125 475> 375 25<-75 -25 125 475>
LayerCount: 2
Back
Fore
SplineSet
0 500 m 1x8bb2
 100 500 l 1
 100 100 l 1
 0 100 l 1
 0 500 l 1x8bb2
75 125 m 1x8dd2
 75 475 l 1
 25 475 l 1
 25 125 l 1
 75 125 l 1x8dd2
300 600 m 1x83b6
 300 500 l 1
 100 500 l 1
 100 600 l 1
 300 600 l 1x83b6
275 525 m 1x83ba
 275 575 l 1
 125 575 l 1
 125 525 l 1
 275 525 l 1x83ba
400 100 m 1x8b96
 300 100 l 1
 300 500 l 1
 400 500 l 1
 400 100 l 1x8b96
325 475 m 1x8d96
 325 125 l 1
 375 125 l 1
 375 475 l 1
 325 475 l 1x8d96
100 100 m 1xa9ba
 300 100 l 1xa9b6
 300 0 l 1xc99a
 400 0 l 1
 400 -100 l 1
 200 -100 l 1
 200 0 l 1
 100 0 l 1
 100 100 l 1xa9ba
375 -25 m 1xc1ba
 275 -25 l 1xc1ba
 275 75 l 1
 125 75 l 1
 125 25 l 1
 225 25 l 1xb1ba
 225 -75 l 1
 375 -75 l 1
 375 -25 l 1xc1ba
EndSplineSet
Validated: 5
EndChar

StartChar: R
Encoding: 82 82 51
Width: 600
VWidth: 0
Flags: W
HStem: 0 25<25 275 425 475> 75 25<25 100 200 275> 175 25<425 475> 200 25<200 375> 275 25<200 375> 300 25<425 475> 475 25<425 475> 500 25<25 100 200 375> 575 25<25 375>
VStem: 0 25<25 75 525 575> 100 25<100 500> 175 25<100 200 300 500> 275 25<25 75> 375 25<225 275 525 575> 400 25<25 175 325 475> 475 25<25 175 325 475>
LayerCount: 2
Back
Fore
SplineSet
200 300 m 1xd9fb
 400 300 l 1xc4fb
 400 200 l 1
 200 200 l 1
 200 100 l 1
 300 100 l 1
 300 0 l 1
 0 0 l 1
 0 100 l 1
 100 100 l 1
 100 500 l 1
 0 500 l 1
 0 600 l 1
 400 600 l 1
 400 500 l 1
 200 500 l 1
 200 300 l 1xd9fb
375 225 m 1xd9fd
 375 275 l 1
 175 275 l 1
 175 525 l 1
 375 525 l 1
 375 575 l 1
 25 575 l 1
 25 525 l 1
 125 525 l 1
 125 75 l 1
 25 75 l 1
 25 25 l 1
 275 25 l 1
 275 75 l 1
 175 75 l 1
 175 225 l 1
 375 225 l 1xd9fd
500 0 m 1
 400 0 l 1
 400 200 l 1xd0fb
 500 200 l 1
 500 0 l 1
425 175 m 1xe0fb
 425 25 l 1
 475 25 l 1
 475 175 l 1
 425 175 l 1xe0fb
500 300 m 1xc5fb
 400 300 l 1
 400 500 l 1
 500 500 l 1
 500 300 l 1xc5fb
425 475 m 1xc6fb
 425 325 l 1
 475 325 l 1
 475 475 l 1
 425 475 l 1xc6fb
EndSplineSet
Validated: 5
EndChar

StartChar: S
Encoding: 83 83 52
Width: 400
VWidth: 0
Flags: W
HStem: 0 25<25 275> 75 25<100 200> 175 25<25 75> 275 25<225 275> 300 25<125 175> 375 25<125 175> 400 25<25 75> 500 25<100 275> 575 25<25 275>
VStem: 0 25<25 175 425 575> 75 25<100 175 425 500> 100 25<325 375> 175 25<325 375> 200 25<100 275> 275 25<25 275 525 575>
LayerCount: 2
Back
Fore
SplineSet
300 500 m 1xe3d2
 100 500 l 1xe3e2
 100 400 l 1
 0 400 l 1
 0 600 l 1
 300 600 l 1
 300 500 l 1xe3d2
75 525 m 1
 275 525 l 1
 275 575 l 1
 25 575 l 1
 25 425 l 1
 75 425 l 1
 75 525 l 1
200 300 m 1xebd6
 100 300 l 1
 100 400 l 1
 200 400 l 1
 200 300 l 1xebd6
125 375 m 1xedda
 125 325 l 1
 175 325 l 1
 175 375 l 1
 125 375 l 1xedda
100 100 m 1xe9e2
 200 100 l 1
 200 300 l 1
 300 300 l 1
 300 0 l 1
 0 0 l 1
 0 200 l 1
 100 200 l 1xe9d6
 100 100 l 1xe9e2
225 75 m 1
 75 75 l 1
 75 175 l 1
 25 175 l 1
 25 25 l 1
 275 25 l 1
 275 275 l 1
 225 275 l 1xf1e6
 225 75 l 1
EndSplineSet
Validated: 5
EndChar

StartChar: T
Encoding: 84 84 53
Width: 600
VWidth: 0
Flags: W
HStem: 0 25<125 375> 75 25<125 200 300 375> 400 25<25 75 425 475> 500 25<100 200 300 400> 575 25<25 475>
VStem: 0 25<425 575> 75 25<425 500> 100 25<25 75> 200 25<100 500> 275 25<100 500> 375 25<25 75> 400 25<425 500> 475 25<425 575>
LayerCount: 2
Back
Fore
SplineSet
0 600 m 1xfdc8
 500 600 l 1
 500 400 l 1
 400 400 l 1
 400 500 l 1
 300 500 l 1
 300 100 l 1
 400 100 l 1
 400 0 l 1
 100 0 l 1
 100 100 l 1xfdd8
 200 100 l 1
 200 500 l 1
 100 500 l 1xfec8
 100 400 l 1
 0 400 l 1
 0 600 l 1xfdc8
475 425 m 1
 475 575 l 1
 25 575 l 1
 25 425 l 1
 75 425 l 1
 75 525 l 1xfed8
 225 525 l 1
 225 75 l 1
 125 75 l 1
 125 25 l 1
 375 25 l 1
 375 75 l 1xfde8
 275 75 l 1
 275 525 l 1
 425 525 l 1
 425 425 l 1
 475 425 l 1
EndSplineSet
Validated: 1
EndChar

StartChar: U
Encoding: 85 85 54
Width: 500
VWidth: 0
Flags: W
HStem: 0 25<125 275> 75 25<125 275> 100 25<25 75 325 375> 500 25<-75 0 225 300> 575 25<-75 75 225 375>
VStem: -100 25<525 575> 0 25<125 500> 75 25<125 575> 100 25<25 75> 200 25<525 575> 275 25<25 75> 300 25<125 500> 375 25<125 575>
LayerCount: 2
Back
Fore
SplineSet
-100 600 m 1xbec8
 100 600 l 1
 100 100 l 1
 0 100 l 1
 0 500 l 1
 -100 500 l 1
 -100 600 l 1xbec8
75 125 m 1xbf48
 75 575 l 1
 -75 575 l 1
 -75 525 l 1
 25 525 l 1
 25 125 l 1
 75 125 l 1xbf48
200 600 m 1
 400 600 l 1
 400 100 l 1
 300 100 l 1
 300 500 l 1xbe58
 200 500 l 1
 200 600 l 1
375 125 m 1
 375 575 l 1
 225 575 l 1
 225 525 l 1
 325 525 l 1
 325 125 l 1
 375 125 l 1
100 0 m 1xbed8
 100 100 l 1
 300 100 l 1
 300 0 l 1
 100 0 l 1xbed8
125 75 m 1xdee8
 125 25 l 1
 275 25 l 1
 275 75 l 1
 125 75 l 1xdee8
EndSplineSet
Validated: 5
EndChar

StartChar: V
Encoding: 86 86 55
Width: 600
VWidth: 0
Flags: W
HStem: 0 25<225 275> 75 25<225 275> 100 25<125 175 325 375> 375 25<125 175 325 375> 400 25<25 75 425 475> 500 25<100 175 325 400> 575 25<25 175 325 475>
VStem: 0 25<425 575> 75 25<425 500> 100 25<125 375> 175 25<125 375 525 575> 200 25<25 75> 275 25<25 75> 300 25<125 375 525 575> 375 25<125 375> 400 25<425 500> 475 25<425 575>
LayerCount: 2
Back
Fore
SplineSet
200 500 m 1x8f5080
 100 500 l 1x8f9080
 100 400 l 1
 0 400 l 1
 0 600 l 1
 200 600 l 1
 200 500 l 1x8f5080
75 525 m 1
 175 525 l 1
 175 575 l 1x8fa080
 25 575 l 1
 25 425 l 1
 75 425 l 1
 75 525 l 1
100 400 m 1xaf5080
 200 400 l 1
 200 100 l 1
 100 100 l 1
 100 400 l 1xaf5080
175 125 m 1xb76080
 175 375 l 1
 125 375 l 1
 125 125 l 1
 175 125 l 1xb76080
300 100 m 1xaf0580
 300 400 l 1
 400 400 l 1
 400 100 l 1
 300 100 l 1xaf0580
325 375 m 1xb70680
 325 125 l 1
 375 125 l 1
 375 375 l 1
 325 375 l 1xb70680
200 0 m 1xa71480
 200 100 l 1
 300 100 l 1
 300 0 l 1
 200 0 l 1xa71480
225 75 m 1xc71880
 225 25 l 1
 275 25 l 1
 275 75 l 1
 225 75 l 1xc71880
300 600 m 1x8f0580
 500 600 l 1
 500 400 l 1
 400 400 l 1
 400 500 l 1
 300 500 l 1
 300 600 l 1x8f0580
475 425 m 1
 475 575 l 1
 325 575 l 1
 325 525 l 1
 425 525 l 1
 425 425 l 1
 475 425 l 1
EndSplineSet
Validated: 5
EndChar

StartChar: W
Encoding: 87 87 56
Width: 600
VWidth: 0
Flags: W
HStem: 0 25<125 175 325 375> 75 25<125 175 325 375> 100 25<25 75 225 275 425 475> 375 25<225 275> 500 25<100 175 325 400> 575 25<25 175 325 475>
VStem: 0 25<125 575> 75 25<125 500> 100 25<25 75> 175 25<25 75 525 575> 200 25<125 375> 275 25<125 375> 300 25<25 75 525 575> 375 25<25 75> 400 25<125 500> 475 25<125 575>
LayerCount: 2
Back
Fore
SplineSet
200 500 m 1xbea1
 100 500 l 1xbf21
 100 100 l 1
 0 100 l 1
 0 600 l 1
 200 600 l 1
 200 500 l 1xbea1
75 525 m 1
 175 525 l 1
 175 575 l 1xbf41
 25 575 l 1
 25 125 l 1
 75 125 l 1
 75 525 l 1
100 0 m 1xbea1
 100 100 l 1
 200 100 l 1
 200 0 l 1
 100 0 l 1xbea1
125 75 m 1xdec1
 125 25 l 1
 175 25 l 1
 175 75 l 1
 125 75 l 1xdec1
200 400 m 1xbe29
 300 400 l 1
 300 100 l 1
 200 100 l 1
 200 400 l 1xbe29
275 125 m 1xbe31
 275 375 l 1
 225 375 l 1
 225 125 l 1
 275 125 l 1xbe31
300 0 m 1xbe0b
 300 100 l 1
 400 100 l 1
 400 0 l 1
 300 0 l 1xbe0b
325 75 m 1xde0d
 325 25 l 1
 375 25 l 1
 375 75 l 1
 325 75 l 1xde0d
300 600 m 1
 500 600 l 1
 500 100 l 1
 400 100 l 1
 400 500 l 1xbe0b
 300 500 l 1
 300 600 l 1
475 125 m 1
 475 575 l 1
 325 575 l 1
 325 525 l 1
 425 525 l 1
 425 125 l 1
 475 125 l 1
EndSplineSet
Validated: 5
EndChar

StartChar: X
Encoding: 88 88 57
Width: 600
VWidth: 0
Flags: W
HStem: 0 25<25 175 325 475> 75 25<25 100 400 475> 175 25<125 175 325 375> 200 25<225 275> 375 25<225 275> 400 25<125 175 325 375> 500 25<25 100 400 475> 575 25<25 175 325 475>
VStem: 0 25<25 75 525 575> 100 25<100 175 425 500> 175 25<25 175 425 575> 200 25<225 375> 275 25<225 375> 300 25<25 175 425 575> 375 25<100 175 425 500> 475 25<25 75 525 575>
LayerCount: 2
Back
Fore
SplineSet
100 100 m 1xd3d3
 100 200 l 1
 200 200 l 1
 200 0 l 1
 0 0 l 1
 0 100 l 1
 100 100 l 1xd3d3
125 175 m 1xe3e3
 125 75 l 1
 25 75 l 1
 25 25 l 1
 175 25 l 1
 175 175 l 1
 125 175 l 1xe3e3
500 0 m 1
 300 0 l 1
 300 200 l 1
 400 200 l 1xd3c7
 400 100 l 1
 500 100 l 1
 500 0 l 1
325 175 m 1xe3c7
 325 25 l 1
 475 25 l 1
 475 75 l 1
 375 75 l 1
 375 175 l 1
 325 175 l 1xe3c7
200 400 m 1xd7d7
 300 400 l 1
 300 200 l 1
 200 200 l 1
 200 400 l 1xd7d7
275 225 m 1xdbdb
 275 375 l 1
 225 375 l 1
 225 225 l 1
 275 225 l 1xdbdb
400 500 m 1
 400 400 l 1
 300 400 l 1
 300 600 l 1xc7c7
 500 600 l 1
 500 500 l 1
 400 500 l 1
375 425 m 1
 375 525 l 1
 475 525 l 1
 475 575 l 1
 325 575 l 1
 325 425 l 1
 375 425 l 1
0 600 m 1
 200 600 l 1
 200 400 l 1xc7d3
 100 400 l 1
 100 500 l 1
 0 500 l 1
 0 600 l 1
175 425 m 1xc7e3
 175 575 l 1
 25 575 l 1
 25 525 l 1
 125 525 l 1
 125 425 l 1
 175 425 l 1xc7e3
EndSplineSet
Validated: 5
EndChar

StartChar: Y
Encoding: 89 89 58
Width: 600
VWidth: 0
Flags: W
HStem: 0 25<125 375> 75 25<125 200 300 375> 275 25<225 275> 300 25<125 175 325 375> 375 25<125 175 325 375> 400 25<25 75 425 475> 500 25<100 175 325 400> 575 25<25 175 325 475>
VStem: 0 25<425 575> 75 25<425 500> 100 25<25 75 325 375> 175 25<325 375 525 575> 200 25<100 275> 275 25<100 275> 300 25<325 375 525 575> 375 25<25 75 325 375> 400 25<425 500> 475 25<425 575>
LayerCount: 2
Back
Fore
SplineSet
200 500 m 1xc7a840
 100 500 l 1xc7c840
 100 400 l 1
 0 400 l 1
 0 600 l 1
 200 600 l 1
 200 500 l 1xc7a840
75 525 m 1
 175 525 l 1
 175 575 l 1xc7d040
 25 575 l 1
 25 425 l 1
 75 425 l 1
 75 525 l 1
300 600 m 1xc782c0
 500 600 l 1
 500 400 l 1
 400 400 l 1
 400 500 l 1
 300 500 l 1
 300 600 l 1xc782c0
475 425 m 1
 475 575 l 1
 325 575 l 1
 325 525 l 1
 425 525 l 1
 425 425 l 1
 475 425 l 1
300 300 m 1xd782c0
 300 400 l 1
 400 400 l 1
 400 300 l 1
 300 300 l 1xd782c0
325 375 m 1xdb8340
 325 325 l 1
 375 325 l 1
 375 375 l 1
 325 375 l 1xdb8340
100 400 m 1xd7a840
 200 400 l 1
 200 300 l 1
 100 300 l 1
 100 400 l 1xd7a840
175 325 m 1xdbb040
 175 375 l 1
 125 375 l 1
 125 325 l 1
 175 325 l 1xdbb040
200 100 m 1xd3acc0
 200 300 l 1
 300 300 l 1xd3aac0
 300 100 l 1
 400 100 l 1
 400 0 l 1
 100 0 l 1
 100 100 l 1
 200 100 l 1xd3acc0
225 275 m 1xe3ad40
 225 75 l 1
 125 75 l 1
 125 25 l 1
 375 25 l 1
 375 75 l 1
 275 75 l 1
 275 275 l 1
 225 275 l 1xe3ad40
EndSplineSet
Validated: 5
EndChar

StartChar: Z
Encoding: 90 90 59
Width: 500
VWidth: 0
Flags: W
HStem: 0 25<25 375> 75 25<100 300> 175 25<25 75 325 375> 200 25<125 175> 275 25<125 175> 300 25<225 275> 375 25<225 275> 400 25<25 75 325 375> 500 25<100 300> 575 25<25 375>
VStem: 0 25<25 175 425 575> 75 25<100 175 425 500> 100 25<225 275> 175 25<225 275> 200 25<325 375> 275 25<325 375> 300 25<100 175 425 500> 375 25<25 175 425 575>
LayerCount: 2
Back
Fore
SplineSet
400 600 m 1xc1e840
 400 400 l 1
 300 400 l 1
 300 500 l 1
 100 500 l 1xc1f0c0
 100 400 l 1
 0 400 l 1
 0 600 l 1
 400 600 l 1xc1e840
375 425 m 1
 375 575 l 1
 25 575 l 1
 25 425 l 1
 75 425 l 1
 75 525 l 1
 325 525 l 1
 325 425 l 1
 375 425 l 1
300 400 m 1
 300 300 l 1
 200 300 l 1
 200 400 l 1xc5e2c0
 300 400 l 1
275 325 m 1xc6e340
 275 375 l 1
 225 375 l 1
 225 325 l 1
 275 325 l 1xc6e340
200 300 m 1
 200 200 l 1
 100 200 l 1
 100 300 l 1xd4ea40
 200 300 l 1
175 225 m 1xd8ec40
 175 275 l 1
 125 275 l 1
 125 225 l 1
 175 225 l 1xd8ec40
0 200 m 1
 100 200 l 1xd0e8c0
 100 100 l 1
 300 100 l 1
 300 200 l 1xd0f0c0
 400 200 l 1
 400 0 l 1
 0 0 l 1
 0 200 l 1
325 75 m 1
 75 75 l 1
 75 175 l 1
 25 175 l 1
 25 25 l 1
 375 25 l 1
 375 175 l 1
 325 175 l 1xe0f0c0
 325 75 l 1
EndSplineSet
Validated: 5
EndChar

StartChar: Agrave
Encoding: 192 192 60
Width: 600
VWidth: 0
Flags: W
HStem: 0 25<25 175 325 475> 75 25<100 175 325 400> 175 25<25 75 425 475> 200 25<125 375> 275 25<200 300> 375 25<125 175 325 375> 400 25<225 275> 500 25<125 200> 575 25<125 275> 600 25<325 375> 675 25<325 375> 700 25<225 275> 775 25<225 275>
VStem: 0 25<25 175> 75 25<100 175> 100 25<225 375 525 575> 175 25<25 75 300 375> 200 25<425 500 725 775> 275 25<425 575 725 775> 300 25<25 75 300 375 625 675> 375 25<225 375 625 675> 400 25<100 175> 475 25<25 175>
LayerCount: 2
Back
Fore
SplineSet
400 700 m 1xc95c16
 400 600 l 1
 300 600 l 1
 300 700 l 1
 400 700 l 1xc95c16
375 625 m 1xc96c1a
 375 675 l 1
 325 675 l 1
 325 625 l 1
 375 625 l 1xc96c1a
200 800 m 1xc91c52
 300 800 l 1
 300 700 l 1
 200 700 l 1
 200 800 l 1xc91c52
275 725 m 1xc91c62
 275 775 l 1
 225 775 l 1
 225 725 l 1
 275 725 l 1xc91c62
300 600 m 1xcb4d52
 300 400 l 1
 200 400 l 1
 200 500 l 1
 100 500 l 1
 100 600 l 1
 300 600 l 1xcb4d52
275 425 m 1xcb8d62
 275 575 l 1
 125 575 l 1
 125 525 l 1
 225 525 l 1
 225 425 l 1
 275 425 l 1xcb8d62
300 400 m 1xdb0c92
 400 400 l 1
 400 200 l 1
 100 200 l 1
 100 400 l 1
 200 400 l 1xdb0d56
 200 300 l 1
 300 300 l 1
 300 400 l 1xdb0c92
375 225 m 1xdd0d9a
 375 375 l 1
 325 375 l 1
 325 275 l 1
 175 275 l 1
 175 375 l 1
 125 375 l 1
 125 225 l 1
 375 225 l 1xdd0d9a
0 0 m 1
 0 200 l 1
 100 200 l 1xd90d42
 100 100 l 1
 200 100 l 1
 200 0 l 1xd90e42
 0 0 l 1
25 175 m 1xe90e82
 25 25 l 1
 175 25 l 1
 175 75 l 1
 75 75 l 1
 75 175 l 1
 25 175 l 1xe90e82
400 200 m 1xd90c16
 500 200 l 1
 500 0 l 1
 300 0 l 1
 300 100 l 1
 400 100 l 1
 400 200 l 1xd90c16
475 25 m 1
 475 175 l 1
 425 175 l 1xe90c16
 425 75 l 1
 325 75 l 1
 325 25 l 1
 475 25 l 1
EndSplineSet
Validated: 5
EndChar

StartChar: Eacute
Encoding: 201 201 61
Width: 600
VWidth: 0
Flags: W
HStem: 0 25<25 475> 75 25<25 100 200 400> 175 25<425 475> 300 25<200 275> 375 25<200 275> 400 25<425 475> 500 25<25 100 200 400> 575 25<25 200 300 475> 675 25<225 275> 700 25<325 375> 775 25<325 375>
VStem: 0 25<25 75 525 575> 100 25<100 500> 175 25<100 300 400 500> 200 25<625 675> 275 25<325 375 625 675> 300 25<725 775> 375 25<725 775> 400 25<100 175 425 500> 475 25<25 175 425 575>
LayerCount: 2
Back
Fore
SplineSet
400 800 m 1xf378b0
 400 700 l 1
 300 700 l 1
 300 800 l 1
 400 800 l 1xf378b0
375 725 m 1xf378d0
 375 775 l 1
 325 775 l 1
 325 725 l 1
 375 725 l 1xf378d0
500 400 m 1xf77ab0
 400 400 l 1xf77ab0
 400 500 l 1
 200 500 l 1
 200 400 l 1xfb3cb0
 300 400 l 1
 300 300 l 1
 200 300 l 1
 200 100 l 1xf73cb0
 400 100 l 1
 400 200 l 1
 500 200 l 1
 500 0 l 1
 0 0 l 1
 0 100 l 1
 100 100 l 1
 100 500 l 1
 0 500 l 1
 0 600 l 1
 200 600 l 1
 200 700 l 1
 300 700 l 1
 300 600 l 1
 500 600 l 1
 500 400 l 1xf77ab0
225 675 m 1xf3bb10
 225 625 l 1
 275 625 l 1
 275 675 l 1
 225 675 l 1xf3bb10
175 525 m 1xfb3d30
 425 525 l 1
 425 425 l 1
 475 425 l 1xf73d30
 475 575 l 1
 25 575 l 1
 25 525 l 1
 125 525 l 1
 125 75 l 1
 25 75 l 1
 25 25 l 1
 475 25 l 1
 475 175 l 1
 425 175 l 1
 425 75 l 1
 175 75 l 1
 175 325 l 1
 275 325 l 1
 275 375 l 1
 175 375 l 1
 175 525 l 1xfb3d30
EndSplineSet
Validated: 5
EndChar

StartChar: Egrave
Encoding: 200 200 62
Width: 600
VWidth: 0
Flags: W
HStem: 0 25<25 475> 75 25<25 100 200 400> 175 25<425 475> 300 25<200 275> 375 25<200 275> 400 25<425 475> 500 25<25 100 200 400> 575 50<325 375> 575 25<25 300 400 475> 675 25<325 375> 700 25<225 275> 775 25<225 275>
VStem: 0 25<25 75 525 575> 100 25<100 500> 175 25<100 300 400 500> 200 25<725 775> 275 25<325 375 725 775> 300 25<625 675> 375 25<625 675> 400 25<100 175 425 500> 475 25<25 175 425 575>
LayerCount: 2
Back
Fore
SplineSet
200 800 m 1xf23d48
 300 800 l 1
 300 700 l 1
 200 700 l 1
 200 800 l 1xf23d48
275 725 m 1xf23d88
 275 775 l 1
 225 775 l 1
 225 725 l 1
 275 725 l 1xf23d88
500 400 m 1xf6be58
 400 400 l 1xf6be58
 400 500 l 1
 200 500 l 1
 200 400 l 1xfa1e58
 300 400 l 1
 300 300 l 1
 200 300 l 1
 200 100 l 1
 400 100 l 1
 400 200 l 1
 500 200 l 1
 500 0 l 1
 0 0 l 1
 0 100 l 1
 100 100 l 1
 100 500 l 1
 0 500 l 1
 0 600 l 1
 300 600 l 1
 300 700 l 1
 400 700 l 1
 400 600 l 1
 500 600 l 1
 500 400 l 1xf6be58
325 675 m 1xf35c68
 325 625 l 1
 375 625 l 1
 375 675 l 1
 325 675 l 1xf35c68
175 525 m 1xfa9e98
 425 525 l 1
 425 425 l 1
 475 425 l 1xf61e98
 475 575 l 1
 25 575 l 1
 25 525 l 1
 125 525 l 1
 125 75 l 1
 25 75 l 1
 25 25 l 1
 475 25 l 1
 475 175 l 1
 425 175 l 1
 425 75 l 1
 175 75 l 1
 175 325 l 1
 275 325 l 1
 275 375 l 1
 175 375 l 1
 175 525 l 1xfa9e98
EndSplineSet
Validated: 5
EndChar

StartChar: Ecircumflex
Encoding: 202 202 63
Width: 600
VWidth: 0
Flags: W
HStem: 0 25<25 475> 75 25<25 100 200 400> 175 25<425 475> 300 25<200 275> 375 25<200 275> 400 25<425 475> 500 25<25 100 200 400> 575 50<125 175 325 375> 575 25<25 100 200 300 400 475> 675 25<125 175 325 375> 700 25<225 275> 775 25<225 275>
VStem: 0 25<25 75 525 575> 100 25<100 500 625 675> 175 25<100 300 400 500 625 675> 200 25<725 775> 275 25<325 375 725 775> 300 25<625 675> 375 25<625 675> 400 25<100 175 425 500> 475 25<25 175 425 575>
LayerCount: 2
Back
Fore
SplineSet
500 400 m 1xf6bd58
 400 400 l 1xf6bd58
 400 500 l 1
 200 500 l 1
 200 400 l 1xfa1e58
 300 400 l 1
 300 300 l 1
 200 300 l 1
 200 100 l 1xf61e58
 400 100 l 1
 400 200 l 1
 500 200 l 1
 500 0 l 1
 0 0 l 1
 0 100 l 1
 100 100 l 1
 100 500 l 1
 0 500 l 1
 0 600 l 1
 100 600 l 1
 100 700 l 1
 200 700 l 1
 200 600 l 1
 300 600 l 1
 300 700 l 1
 400 700 l 1
 400 600 l 1
 500 600 l 1
 500 400 l 1xf6bd58
325 675 m 1xf35c68
 325 625 l 1
 375 625 l 1
 375 675 l 1
 325 675 l 1xf35c68
125 675 m 1
 125 625 l 1
 175 625 l 1
 175 675 l 1xf35e08
 125 675 l 1
175 525 m 1
 425 525 l 1
 425 425 l 1
 475 425 l 1xf61e98
 475 575 l 1
 25 575 l 1
 25 525 l 1
 125 525 l 1
 125 75 l 1
 25 75 l 1
 25 25 l 1
 475 25 l 1
 475 175 l 1
 425 175 l 1
 425 75 l 1
 175 75 l 1
 175 325 l 1
 275 325 l 1
 275 375 l 1
 175 375 l 1xfa9e98
 175 525 l 1
300 800 m 1xf23d48
 300 700 l 1
 200 700 l 1
 200 800 l 1
 300 800 l 1xf23d48
275 725 m 1xf23d88
 275 775 l 1
 225 775 l 1
 225 725 l 1
 275 725 l 1xf23d88
EndSplineSet
Validated: 5
EndChar

StartChar: Uacute
Encoding: 218 218 64
Width: 500
VWidth: 0
Flags: W
HStem: 0 25<125 275> 75 25<125 275> 100 25<25 75 325 375> 500 25<-75 0 225 300> 575 50<225 275> 575 25<-75 75 300 375> 675 25<225 275> 700 25<125 175> 775 25<125 175>
VStem: -100 25<525 575> 0 25<125 500> 75 25<125 575> 100 25<25 75 725 775> 175 25<725 775> 200 25<525 575 625 675> 275 25<25 75 625 675> 300 25<125 500> 375 25<125 575>
LayerCount: 2
Back
Fore
SplineSet
-100 600 m 1xb4e840
 100 600 l 1
 100 100 l 1
 0 100 l 1
 0 500 l 1
 -100 500 l 1
 -100 600 l 1xb4e840
75 125 m 1xb4f040
 75 575 l 1
 -75 575 l 1
 -75 525 l 1
 25 525 l 1
 25 125 l 1
 75 125 l 1xb4f040
300 600 m 1xb5e2c0
 400 600 l 1
 400 100 l 1
 300 100 l 1
 300 500 l 1
 200 500 l 1
 200 700 l 1
 300 700 l 1
 300 600 l 1xb5e2c0
225 675 m 1x9ae340
 225 625 l 1
 275 625 l 1
 275 675 l 1
 225 675 l 1x9ae340
375 125 m 1xb8e2c0
 375 575 l 1xb4e2c0
 225 575 l 1
 225 525 l 1
 325 525 l 1
 325 125 l 1
 375 125 l 1xb8e2c0
100 0 m 1xb0e8c0
 100 100 l 1
 300 100 l 1
 300 0 l 1
 100 0 l 1xb0e8c0
125 75 m 1xd0e940
 125 25 l 1
 275 25 l 1
 275 75 l 1
 125 75 l 1xd0e940
100 800 m 1
 200 800 l 1
 200 700 l 1
 100 700 l 1x91ea40
 100 800 l 1
175 725 m 1x91ec40
 175 775 l 1
 125 775 l 1
 125 725 l 1
 175 725 l 1x91ec40
EndSplineSet
Validated: 5
EndChar

StartChar: Icircumflex
Encoding: 206 206 65
Width: 400
VWidth: 0
Flags: W
HStem: 0 25<25 275> 75 25<25 100 200 275> 500 25<25 100 200 275> 575 50<25 75 225 275> 675 25<25 75 225 275> 700 25<125 175> 775 25<125 175>
VStem: 0 25<25 75 525 575 625 675> 75 25<625 675> 100 25<100 500 725 775> 175 25<100 500 725 775> 200 25<625 675> 275 25<25 75 525 575 625 675>
LayerCount: 2
Back
Fore
SplineSet
200 800 m 1xf758
 200 700 l 1
 100 700 l 1
 100 800 l 1
 200 800 l 1xf758
175 725 m 1xf768
 175 775 l 1
 125 775 l 1
 125 725 l 1
 175 725 l 1xf768
300 500 m 1
 200 500 l 1
 200 100 l 1xf728
 300 100 l 1
 300 0 l 1
 0 0 l 1
 0 100 l 1
 100 100 l 1
 100 500 l 1
 0 500 l 1
 0 700 l 1
 100 700 l 1
 100 600 l 1
 200 600 l 1
 200 700 l 1xf758
 300 700 l 1
 300 500 l 1
225 675 m 1xfb18
 225 625 l 1
 275 625 l 1
 275 675 l 1
 225 675 l 1xfb18
25 675 m 1
 25 625 l 1
 75 625 l 1
 75 675 l 1xfb88
 25 675 l 1
275 75 m 1
 175 75 l 1
 175 525 l 1
 275 525 l 1
 275 575 l 1
 25 575 l 1
 25 525 l 1
 125 525 l 1
 125 75 l 1xf368
 25 75 l 1
 25 25 l 1
 275 25 l 1
 275 75 l 1
EndSplineSet
Validated: 5
EndChar

StartChar: Ccedilla
Encoding: 199 199 66
Width: 400
VWidth: 0
Flags: W
HStem: -200 25<25 175> -125 25<25 100> -25 50<125 175> 0 25<200 275> 75 25<125 275> 100 25<25 75> 400 25<225 275> 500 25<100 200> 575 25<25 275>
VStem: 0 25<-175 -125 125 575> 75 25<125 500> 100 25<-100 -25 25 75> 175 25<-175 -25> 200 25<425 500> 275 25<25 75 425 575>
LayerCount: 2
Back
Fore
SplineSet
300 400 m 1xc7d2
 200 400 l 1
 200 500 l 1
 100 500 l 1xc7e6
 100 100 l 1
 0 100 l 1
 0 600 l 1
 300 600 l 1
 300 400 l 1xc7d2
75 525 m 1
 225 525 l 1
 225 425 l 1
 275 425 l 1
 275 575 l 1
 25 575 l 1
 25 125 l 1
 75 125 l 1
 75 525 l 1
0 -100 m 1
 100 -100 l 1
 100 100 l 1
 300 100 l 1
 300 0 l 1
 200 0 l 1xd7d6
 200 -200 l 1
 0 -200 l 1
 0 -100 l 1
125 75 m 1xdbd2
 125 25 l 1xebd2
 275 25 l 1
 275 75 l 1
 125 75 l 1xdbd2
125 -125 m 1
 25 -125 l 1
 25 -175 l 1
 175 -175 l 1
 175 -25 l 1xe3da
 125 -25 l 1
 125 -125 l 1
EndSplineSet
Validated: 5
EndChar

StartChar: hyphen
Encoding: 45 45 67
Width: 400
VWidth: 0
Flags: W
HStem: 200 25<25 275> 275 25<25 275>
VStem: 0 25<225 275> 275 25<225 275>
LayerCount: 2
Back
Fore
SplineSet
0 300 m 1
 300 300 l 1
 300 200 l 1
 0 200 l 1
 0 300 l 1
275 225 m 1
 275 275 l 1
 25 275 l 1
 25 225 l 1
 275 225 l 1
EndSplineSet
Validated: 1
EndChar

StartChar: period
Encoding: 46 46 68
Width: 300
VWidth: 0
Flags: W
HStem: 0 25<25 75> 75 25<25 75>
VStem: 0 25<25 75> 75 25<25 75>
LayerCount: 2
Back
Fore
SplineSet
0 100 m 1
 100 100 l 1
 100 0 l 1
 0 0 l 1
 0 100 l 1
75 25 m 1
 75 75 l 1
 25 75 l 1
 25 25 l 1
 75 25 l 1
EndSplineSet
Validated: 1
EndChar

StartChar: comma
Encoding: 44 44 69
Width: 300
VWidth: 0
Flags: W
HStem: -200 25<25 75> -125 25<25 75> -100 25<125 175> 75 25<125 175>
VStem: 0 25<-175 -125> 75 25<-175 -125> 100 25<-75 75> 175 25<-75 75>
LayerCount: 2
Back
Fore
SplineSet
100 100 m 1xbb
 200 100 l 1
 200 -100 l 1
 100 -100 l 1
 100 100 l 1xbb
175 -75 m 1
 175 75 l 1
 125 75 l 1
 125 -75 l 1
 175 -75 l 1
0 -200 m 1
 0 -100 l 1
 100 -100 l 1
 100 -200 l 1
 0 -200 l 1
25 -125 m 1xdd
 25 -175 l 1
 75 -175 l 1
 75 -125 l 1
 25 -125 l 1xdd
EndSplineSet
Validated: 5
EndChar

StartChar: slash
Encoding: 47 47 70
Width: 400
VWidth: 0
Flags: W
HStem: 0 25<25 75> 175 25<25 75> 200 25<125 175> 375 25<125 175> 400 25<225 275> 575 25<225 275>
VStem: 0 25<25 175> 75 25<25 175> 100 25<225 375> 175 25<225 375> 200 25<425 575> 275 25<425 575>
LayerCount: 2
Back
Fore
SplineSet
0 0 m 1xa690
 0 200 l 1
 100 200 l 1
 100 0 l 1
 0 0 l 1xa690
25 175 m 1xc710
 25 25 l 1
 75 25 l 1
 75 175 l 1
 25 175 l 1xc710
200 600 m 1x8e30
 300 600 l 1
 300 400 l 1
 200 400 l 1
 200 600 l 1x8e30
275 425 m 1
 275 575 l 1
 225 575 l 1
 225 425 l 1
 275 425 l 1
100 200 m 1xaeb0
 100 400 l 1
 200 400 l 1
 200 200 l 1
 100 200 l 1xaeb0
125 375 m 1xb6d0
 125 225 l 1
 175 225 l 1
 175 375 l 1
 125 375 l 1xb6d0
EndSplineSet
Validated: 5
EndChar

StartChar: uni25B6
Encoding: 9654 9654 71
Width: 400
VWidth: 0
Flags: W
HStem: 0 25<25 75> 100 25<100 175> 175 25<25 100> 200 25<200 275> 275 25<200 275> 300 25<25 100> 375 25<100 175> 475 25<25 75>
VStem: 0 25<25 175 325 475> 75 25<25 100 400 475> 100 25<200 300> 175 25<125 200 300 375> 275 25<225 275>
LayerCount: 2
Back
Fore
SplineSet
200 300 m 5xcbd8
 300 300 l 5
 300 200 l 5
 200 200 l 5
 200 100 l 5
 100 100 l 5xd7d8
 100 0 l 5
 0 0 l 5
 0 100 l 5
 0 200 l 5xd7b8
 100 200 l 5
 100 300 l 5
 0 300 l 5
 0 500 l 5
 100 500 l 5xe7b8
 100 400 l 5
 200 400 l 5
 200 300 l 5xcbd8
275 225 m 5
 275 275 l 5
 175 275 l 5
 175 375 l 5
 75 375 l 5
 75 475 l 5xdbd8
 25 475 l 5
 25 325 l 5
 125 325 l 5
 125 175 l 5
 25 175 l 5xe7b8
 25 100 l 5
 25 25 l 5
 75 25 l 5
 75 125 l 5
 175 125 l 5
 175 225 l 5
 275 225 l 5
EndSplineSet
Validated: 1
EndChar

StartChar: quotesingle
Encoding: 39 39 72
Width: 300
VWidth: 0
Flags: W
HStem: 300 25<25 75> 375 25<25 75> 400 25<125 175> 575 25<125 175>
VStem: 0 25<325 375> 75 25<325 375> 100 25<425 575> 175 25<425 575>
LayerCount: 2
Back
Fore
SplineSet
100 600 m 1xbb
 200 600 l 1
 200 400 l 1
 100 400 l 1
 100 600 l 1xbb
175 425 m 1
 175 575 l 1
 125 575 l 1
 125 425 l 1
 175 425 l 1
0 300 m 1
 0 400 l 1
 100 400 l 1
 100 300 l 1
 0 300 l 1
25 375 m 1xdd
 25 325 l 1
 75 325 l 1
 75 375 l 1
 25 375 l 1xdd
EndSplineSet
Validated: 5
EndChar

StartChar: parenleft
Encoding: 40 40 73
Width: 300
VWidth: 0
Flags: W
HStem: 580 20G<125 175>
LayerCount: 2
Back
Fore
SplineSet
0 0 m 1
 100 0 l 1
 100 525 l 1
 0 525 l 1
 0 0 l 1
75 500 m 1
 75 25 l 1
 25 25 l 1
 25 500 l 1
 75 500 l 1
200 -100 m 1
 200 0 l 1
 100 0 l 1
 100 -100 l 1
 200 -100 l 1
175 -25 m 1
 175 -75 l 1
 125 -75 l 1
 125 -25 l 1
 175 -25 l 1
200 625 m 1
 100 625 l 1
 100 525 l 1
 200 525 l 1
 200 625 l 1
125 550 m 1
 125 600 l 1
 175 600 l 1
 175 550 l 1
 125 550 l 1
EndSplineSet
Validated: 5
EndChar

StartChar: parenright
Encoding: 41 41 74
Width: 300
VWidth: 0
Flags: W
HStem: -100 25<25 75> -25 25<25 75> 0 25<125 175> 500 25<125 175> 525 25<25 75> 600 25<25 75>
VStem: 0 25<-75 -25 550 600> 75 25<-75 -25 550 600> 100 25<25 500> 175 25<25 500>
LayerCount: 2
Back
Fore
SplineSet
200 0 m 1xaec0
 100 0 l 1
 100 525 l 1
 200 525 l 1
 200 0 l 1xaec0
125 500 m 1xb6c0
 125 25 l 1
 175 25 l 1
 175 500 l 1
 125 500 l 1xb6c0
0 -100 m 1
 0 0 l 1
 100 0 l 1
 100 -100 l 1
 0 -100 l 1
25 -25 m 1xc740
 25 -75 l 1
 75 -75 l 1
 75 -25 l 1
 25 -25 l 1xc740
0 625 m 1
 100 625 l 1
 100 525 l 1
 0 525 l 1x8ec0
 0 625 l 1
75 550 m 1x8f40
 75 600 l 1
 25 600 l 1
 25 550 l 1
 75 550 l 1x8f40
EndSplineSet
Validated: 5
EndChar

StartChar: ampersand
Encoding: 38 38 75
Width: 600
VWidth: 0
Flags: W
HStem: 0 25<125 275> 75 25<125 275> 100 25<25 75 325 375> 200 25<225 300 400 475> 275 25<25 75 225 475> 300 25<125 175> 375 25<125 175> 400 25<25 75> 475 25<25 75> 500 25<125 275> 575 25<125 275>
VStem: 0 25<125 275 425 475> 75 25<125 275 425 475> 100 25<25 75 325 375 525 575> 175 25<325 375> 200 25<225 275> 275 25<25 75 525 575> 300 25<125 200> 375 25<125 200> 475 25<225 275>
LayerCount: 2
Back
Fore
SplineSet
300 600 m 5x907470
 300 500 l 5
 100 500 l 5
 100 600 l 5
 300 600 l 5x907470
275 525 m 5x9074b0
 275 575 l 5
 125 575 l 5
 125 525 l 5
 275 525 l 5x9074b0
0 500 m 5
 100 500 l 5
 100 400 l 5
 0 400 l 5x917430
 0 500 l 5
75 425 m 5x91b830
 75 475 l 5
 25 475 l 5
 25 425 l 5
 75 425 l 5x91b830
200 400 m 5x953530
 200 300 l 5
 100 300 l 5
 100 400 l 5
 200 400 l 5x953530
175 325 m 5x963630
 175 375 l 5
 125 375 l 5
 125 325 l 5
 175 325 l 5x963630
0 300 m 5
 100 300 l 5
 100 100 l 5
 0 100 l 5xb43430
 0 300 l 5
75 125 m 5xb83830
 75 275 l 5
 25 275 l 5
 25 125 l 5
 75 125 l 5xb83830
200 300 m 5xb43170
 500 300 l 5
 500 200 l 5
 400 200 l 5
 400 100 l 5
 300 100 l 5
 300 200 l 5
 200 200 l 5
 200 300 l 5xb43170
475 225 m 5
 475 275 l 5
 225 275 l 5xb83170
 225 225 l 5
 325 225 l 5
 325 125 l 5
 375 125 l 5
 375 225 l 5
 475 225 l 5
100 0 m 5xb03470
 100 100 l 5
 300 100 l 5
 300 0 l 5
 100 0 l 5xb03470
125 75 m 5xd034b0
 125 25 l 5
 275 25 l 5
 275 75 l 5
 125 75 l 5xd034b0
EndSplineSet
Validated: 5
EndChar

StartChar: uni25C0
Encoding: 9664 9664 76
Width: 400
VWidth: 0
Flags: W
HStem: 0 25<225 275> 100 25<125 200> 175 25<200 275> 200 25<25 100> 275 25<25 100> 300 25<200 275> 375 25<125 200> 475 25<225 275>
VStem: 0 25<225 275> 100 25<125 200 300 375> 175 25<200 300> 200 25<25 100 400 475> 275 25<25 175 325 475>
LayerCount: 2
Back
Fore
SplineSet
100 200 m 1xd3d8
 0 200 l 1
 0 300 l 1xd7d8
 100 300 l 1
 100 400 l 1
 200 400 l 1
 200 500 l 1xcbd8
 300 500 l 1
 300 400 l 1
 300 300 l 1
 200 300 l 1
 200 200 l 1xe7e8
 300 200 l 1
 300 0 l 1
 200 0 l 1
 200 100 l 1
 100 100 l 1
 100 200 l 1xd3d8
25 275 m 1xcbd8
 25 225 l 1
 125 225 l 1
 125 125 l 1
 225 125 l 1
 225 25 l 1xdbd8
 275 25 l 1
 275 175 l 1
 175 175 l 1
 175 325 l 1
 275 325 l 1xe7e8
 275 400 l 1
 275 475 l 1
 225 475 l 1
 225 375 l 1
 125 375 l 1
 125 275 l 1
 25 275 l 1xcbd8
EndSplineSet
Validated: 1
EndChar

StartChar: circlemultiply
Encoding: 8855 8855 77
Width: 800
VWidth: 0
Flags: W
HStem: -100 25<225 475> -25 25<225 475> 0 25<125 175 525 575> 75 25<125 175 525 575> 100 25<25 75 225 275 425 475 625 675> 175 25<225 275 425 475> 200 25<325 375> 275 25<325 375> 300 25<225 275 425 475> 375 25<25 75 225 275 425 475 625 675> 400 25<125 175 525 575> 475 25<125 175 525 575> 500 25<225 475> 575 25<225 475>
VStem: 0 25<125 375> 75 25<125 375> 100 25<25 75 425 475> 175 25<25 75 425 475> 200 25<-75 -25 125 175 325 375 525 575> 275 25<125 175 325 375> 300 25<225 275> 375 25<225 275> 400 25<125 175 325 375> 475 25<-75 -25 125 175 325 375 525 575> 500 25<25 75 425 475> 575 25<25 75 425 475> 600 25<125 375> 675 25<125 375>
LayerCount: 2
Back
Fore
SplineSet
0 400 m 1x88268010
 100 400 l 1
 100 100 l 1
 0 100 l 1
 0 400 l 1x88268010
75 125 m 1x88470010
 75 375 l 1
 25 375 l 1
 25 125 l 1
 75 125 l 1x88470010
200 500 m 1x802ea010
 200 400 l 1
 100 400 l 1
 100 500 l 1
 200 500 l 1x802ea010
175 425 m 1x8036c010
 175 475 l 1
 125 475 l 1
 125 425 l 1
 175 425 l 1x8036c010
200 400 m 1x80a62810
 300 400 l 1
 300 300 l 1
 200 300 l 1
 200 400 l 1x80a62810
275 325 m 1x80c63010
 275 375 l 1
 225 375 l 1
 225 325 l 1
 275 325 l 1x80c63010
300 200 m 1x82860a10
 300 300 l 1
 400 300 l 1
 400 200 l 1
 300 200 l 1x82860a10
325 275 m 1x83060c10
 325 225 l 1
 375 225 l 1
 375 275 l 1
 325 275 l 1x83060c10
400 300 m 1x80a60290
 400 400 l 1
 500 400 l 1
 500 300 l 1
 400 300 l 1x80a60290
425 375 m 1x80c60310
 425 325 l 1
 475 325 l 1
 475 375 l 1
 425 375 l 1x80c60310
600 400 m 1x802e00b0
 500 400 l 1
 500 500 l 1
 600 500 l 1
 600 400 l 1x802e00b0
525 475 m 1x803600d0
 525 425 l 1
 575 425 l 1
 575 475 l 1
 525 475 l 1x803600d0
500 600 m 1
 500 500 l 1
 200 500 l 1
 200 600 l 1x800e2090
 500 600 l 1
475 525 m 1x800e2110
 475 575 l 1
 225 575 l 1
 225 525 l 1
 475 525 l 1x800e2110
600 400 m 1x88260030
 700 400 l 1
 700 100 l 1
 600 100 l 1
 600 400 l 1x88260030
675 125 m 1
 675 375 l 1
 625 375 l 1x88460030
 625 125 l 1
 675 125 l 1
500 0 m 1xa80600b0
 500 100 l 1
 600 100 l 1
 600 0 l 1
 500 0 l 1xa80600b0
525 75 m 1xb00600d0
 525 25 l 1
 575 25 l 1
 575 75 l 1
 525 75 l 1xb00600d0
500 100 m 1x8a060290
 400 100 l 1
 400 200 l 1
 500 200 l 1
 500 100 l 1x8a060290
425 175 m 1x8c060310
 425 125 l 1
 475 125 l 1
 475 175 l 1
 425 175 l 1x8c060310
200 100 m 1x8a062810
 200 200 l 1
 300 200 l 1
 300 100 l 1
 200 100 l 1x8a062810
225 175 m 1x8c063010
 225 125 l 1
 275 125 l 1
 275 175 l 1
 225 175 l 1x8c063010
100 100 m 1xa806a010
 200 100 l 1
 200 0 l 1
 100 0 l 1
 100 100 l 1xa806a010
175 25 m 1xb006c010
 175 75 l 1
 125 75 l 1
 125 25 l 1
 175 25 l 1xb006c010
200 -100 m 1xa0062090
 200 0 l 1
 500 0 l 1
 500 -100 l 1
 200 -100 l 1xa0062090
225 -25 m 1xc0062110
 225 -75 l 1
 475 -75 l 1
 475 -25 l 1
 225 -25 l 1xc0062110
EndSplineSet
Validated: 5
EndChar

StartChar: uni22A0
Encoding: 8864 8864 78
Width: 800
VWidth: 0
Flags: W
HStem: -100 25<25 675> -25 25<200 500> 75 25<100 175 525 600> 100 25<225 275 425 475> 175 25<225 275 425 475> 200 25<325 375> 275 25<325 375> 300 25<225 275 425 475> 375 25<225 275 425 475> 400 25<100 175 525 600> 500 25<200 500> 575 25<25 675>
VStem: 0 25<-75 575> 75 25<100 400> 175 25<0 75 425 500> 200 25<125 175 325 375> 275 25<125 175 325 375> 300 25<225 275> 375 25<225 275> 400 25<125 175 325 375> 475 25<125 175 325 375> 500 25<0 75 425 500> 600 25<100 400> 675 25<-75 575>
LayerCount: 2
Back
Fore
SplineSet
0 600 m 1xc03c03
 700 600 l 1
 700 -100 l 1
 0 -100 l 1
 0 600 l 1xc03c03
675 -75 m 1
 675 575 l 1
 25 575 l 1
 25 -75 l 1
 675 -75 l 1
175 -25 m 1xe07e07
 175 75 l 1
 75 75 l 1
 75 425 l 1
 175 425 l 1
 175 525 l 1
 525 525 l 1
 525 425 l 1
 625 425 l 1
 625 75 l 1
 525 75 l 1
 525 -25 l 1
 175 -25 l 1xe07e07
100 100 m 1
 200 100 l 1xd03d03
 200 0 l 1
 500 0 l 1
 500 100 l 1xd03e07
 600 100 l 1
 600 400 l 1
 500 400 l 1
 500 500 l 1
 200 500 l 1xe07e07
 200 400 l 1xe07d03
 100 400 l 1
 100 100 l 1
400 300 m 1xc17c17
 400 400 l 1
 500 400 l 1
 500 300 l 1
 400 300 l 1xc17c17
425 375 m 1xc1bc1b
 425 325 l 1
 475 325 l 1
 475 375 l 1
 425 375 l 1xc1bc1b
400 300 m 1
 400 200 l 1
 300 200 l 1
 300 300 l 1xc53c53
 400 300 l 1
375 225 m 1xc63c63
 375 275 l 1
 325 275 l 1
 325 225 l 1
 375 225 l 1xc63c63
300 300 m 1xc17d43
 200 300 l 1
 200 400 l 1
 300 400 l 1
 300 300 l 1xc17d43
225 375 m 1xc1bd83
 225 325 l 1
 275 325 l 1
 275 375 l 1
 225 375 l 1xc1bd83
300 200 m 1xd43d43
 300 100 l 1
 200 100 l 1
 200 200 l 1
 300 200 l 1xd43d43
275 125 m 1xd83d83
 275 175 l 1
 225 175 l 1
 225 125 l 1
 275 125 l 1xd83d83
400 200 m 1xd43c17
 500 200 l 1
 500 100 l 1
 400 100 l 1
 400 200 l 1xd43c17
475 125 m 1xd83c1b
 475 175 l 1
 425 175 l 1
 425 125 l 1
 475 125 l 1xd83c1b
EndSplineSet
Validated: 5
EndChar

StartChar: question
Encoding: 63 63 79
Width: 500
VWidth: 0
Flags: W
HStem: 0 25<225 275> 75 25<225 275> 202.125 25<225 275> 277.125 25<225 275> 300 25<325 375> 400 25<125 175> 475 25<125 175 325 375> 500 25<225 275> 575 25<225 275>
VStem: 100 25<425 475> 175 25<425 475> 200 25<25 75 227.125 277.125 525 575> 275 25<25 75 227.125 277.125 525 575> 300 25<325 475> 375 25<325 475>
LayerCount: 2
Back
Fore
SplineSet
100 500 m 5xe5d2
 200 500 l 5
 200 400 l 5
 100 400 l 5
 100 500 l 5xe5d2
175 425 m 5xe6e2
 175 475 l 5
 125 475 l 5
 125 425 l 5
 175 425 l 5xe6e2
200 302.125 m 5xf4d6
 300 302.125 l 5
 300 202.125 l 5
 200 202.125 l 5
 200 302.125 l 5xf4d6
275 227.125 m 5xf4da
 275 277.125 l 5
 225 277.125 l 5
 225 227.125 l 5
 275 227.125 l 5xf4da
200 100 m 5
 300 100 l 5
 300 0 l 5xe4d6
 200 0 l 5
 200 100 l 5
275 25 m 5xe4da
 275 75 l 5
 225 75 l 5
 225 25 l 5
 275 25 l 5xe4da
200 600 m 5
 300 600 l 5
 300 500 l 5
 200 500 l 5xe5d6
 200 600 l 5
275 525 m 5xe5da
 275 575 l 5
 225 575 l 5
 225 525 l 5
 275 525 l 5xe5da
300 500 m 5xedc6
 400 500 l 5
 400 300 l 5
 300 300 l 5
 300 500 l 5xedc6
375 325 m 5
 375 475 l 5
 325 475 l 5xeec6
 325 325 l 5
 375 325 l 5
EndSplineSet
Validated: 5
EndChar

StartChar: exclam
Encoding: 33 33 80
Width: 300
VWidth: 0
Flags: W
HStem: 0 25<125 175> 75 25<125 175> 200 25<125 175> 575 25<125 175>
VStem: 100 25<25 75 225 575> 175 25<25 75 225 575>
LayerCount: 2
Back
Fore
SplineSet
100 100 m 5
 200 100 l 5
 200 0 l 5
 100 0 l 5
 100 100 l 5
175 25 m 5
 175 75 l 5
 125 75 l 5
 125 25 l 5
 175 25 l 5
100 600 m 5
 200 600 l 5
 200 200 l 5
 100 200 l 5
 100 600 l 5
175 225 m 5
 175 575 l 5
 125 575 l 5
 125 225 l 5
 175 225 l 5
EndSplineSet
Validated: 1
EndChar

StartChar: zero
Encoding: 48 48 81
Width: 500
VWidth: 0
Flags: W
HStem: 0 25<125 275> 75 25<125 275> 100 25<25 75 325 375> 200 25<100 175> 275 25<100 175> 300 25<225 300> 375 25<225 300> 475 25<25 75 325 375> 500 25<125 275> 575 25<125 275>
VStem: 0 25<125 475> 75 25<125 200 300 475> 100 25<25 75 525 575> 175 25<225 275> 200 25<325 375> 275 25<25 75 525 575> 300 25<125 300 400 475> 375 25<125 475>
LayerCount: 2
Back
Fore
SplineSet
100 300 m 1xbaf040
 200 300 l 1
 200 200 l 1
 100 200 l 1x967240
 100 100 l 1
 0 100 l 1
 0 500 l 1
 100 500 l 1xb6e840
 100 300 l 1xbaf040
175 225 m 1xbb7440
 175 275 l 1
 75 275 l 1
 75 475 l 1
 25 475 l 1
 25 125 l 1
 75 125 l 1
 75 225 l 1
 175 225 l 1xbb7440
300 500 m 1xb6e2c0
 400 500 l 1
 400 100 l 1
 300 100 l 1
 300 300 l 1
 200 300 l 1
 200 400 l 1
 300 400 l 1
 300 500 l 1xb6e2c0
375 125 m 1
 375 475 l 1
 325 475 l 1xb762c0
 325 375 l 1
 225 375 l 1
 225 325 l 1
 325 325 l 1
 325 125 l 1
 375 125 l 1
100 600 m 1x92e8c0
 300 600 l 1
 300 500 l 1
 100 500 l 1
 100 600 l 1x92e8c0
275 525 m 1x92e940
 275 575 l 1
 125 575 l 1
 125 525 l 1
 275 525 l 1x92e940
100 100 m 1xb268c0
 300 100 l 1
 300 0 l 1
 100 0 l 1
 100 100 l 1xb268c0
275 25 m 1xd26940
 275 75 l 1
 125 75 l 1
 125 25 l 1
 275 25 l 1xd26940
EndSplineSet
Validated: 5
EndChar

StartChar: one
Encoding: 49 49 82
Width: 375
VWidth: 0
Flags: W
HStem: 0 25<25 250> 75 25<25 100 200 250> 500 25<25 100> 575 25<25 175>
VStem: 0 25<25 75 525 575> 100 25<100 500> 175 25<100 575> 250 25<25 75>
LayerCount: 2
Back
Fore
SplineSet
200 100 m 1
 275 100 l 1
 275 0 l 1
 0 0 l 1
 0 100 l 1
 100 100 l 1
 100 500 l 1
 0 500 l 1
 0 600 l 1
 200 600 l 1
 200 100 l 1
250 25 m 1
 250 75 l 1
 175 75 l 1
 175 575 l 1
 25 575 l 1
 25 525 l 1
 125 525 l 1
 125 75 l 1
 25 75 l 1
 25 25 l 1
 250 25 l 1
EndSplineSet
Validated: 1
EndChar

StartChar: two
Encoding: 50 50 83
Width: 400
VWidth: 0
Flags: W
HStem: 0 25<25 275> 75 25<100 275> 175 25<25 75> 200 25<125 175> 275 25<125 175> 300 25<225 275> 400 25<25 75> 475 25<25 75 225 275> 500 25<125 175> 575 25<125 175>
VStem: 0 25<25 175 425 475> 75 25<100 175 425 475> 100 25<225 275 525 575> 175 25<225 275 525 575> 200 25<325 475> 275 25<25 75 325 475>
LayerCount: 2
Back
Fore
SplineSet
0 500 m 1xc2e9
 100 500 l 1
 100 400 l 1
 0 400 l 1
 0 500 l 1xc2e9
75 425 m 1xc371
 75 475 l 1
 25 475 l 1
 25 425 l 1
 75 425 l 1xc371
200 500 m 1xc6e3
 300 500 l 1
 300 300 l 1
 200 300 l 1
 200 500 l 1xc6e3
275 325 m 1
 275 475 l 1
 225 475 l 1xc763
 225 325 l 1
 275 325 l 1
100 100 m 1xd271
 300 100 l 1
 300 0 l 1
 0 0 l 1
 0 200 l 1
 100 200 l 1xd269
 100 100 l 1xd271
275 25 m 1
 275 75 l 1
 75 75 l 1
 75 175 l 1
 25 175 l 1xe271
 25 25 l 1
 275 25 l 1
100 600 m 1xc2eb
 200 600 l 1
 200 500 l 1
 100 500 l 1
 100 600 l 1xc2eb
175 525 m 1xc2ed
 175 575 l 1
 125 575 l 1
 125 525 l 1
 175 525 l 1xc2ed
100 300 m 1xd66b
 200 300 l 1
 200 200 l 1
 100 200 l 1
 100 300 l 1xd66b
175 225 m 1xda6d
 175 275 l 1
 125 275 l 1
 125 225 l 1
 175 225 l 1xda6d
EndSplineSet
Validated: 5
EndChar

StartChar: three
Encoding: 51 51 84
Width: 400
VWidth: 0
Flags: W
HStem: 0 25<25 175> 75 25<25 175> 100 25<225 275> 175 25<225 275> 200 25<125 175> 275 25<125 175> 300 25<225 275> 400 25<25 75> 475 25<25 75 225 275> 500 25<125 175> 575 25<125 175>
VStem: 0 25<25 75 425 475> 75 25<425 475> 100 25<225 275 525 575> 175 25<25 75 225 275 525 575> 200 25<125 175 325 475> 275 25<125 175 325 475>
LayerCount: 2
Back
Fore
SplineSet
0 500 m 1x817480
 100 500 l 1
 100 400 l 1
 0 400 l 1
 0 500 l 1x817480
75 425 m 1x81b880
 75 475 l 1
 25 475 l 1
 25 425 l 1
 75 425 l 1x81b880
200 200 m 1xa93180
 300 200 l 1
 300 100 l 1
 200 100 l 1
 200 200 l 1xa93180
275 125 m 1
 275 175 l 1
 225 175 l 1xb13180
 225 125 l 1
 275 125 l 1
100 300 m 1x8b3580
 200 300 l 1
 200 200 l 1
 100 200 l 1
 100 300 l 1x8b3580
175 225 m 1x8d3680
 175 275 l 1
 125 275 l 1
 125 225 l 1
 175 225 l 1x8d3680
100 600 m 1
 200 600 l 1
 200 500 l 1
 100 500 l 1x817580
 100 600 l 1
175 525 m 1x817680
 175 575 l 1
 125 575 l 1
 125 525 l 1
 175 525 l 1x817680
200 500 m 1x837180
 300 500 l 1
 300 300 l 1
 200 300 l 1
 200 500 l 1x837180
275 325 m 1
 275 475 l 1
 225 475 l 1x83b180
 225 325 l 1
 275 325 l 1
0 100 m 1xa13180
 200 100 l 1
 200 0 l 1
 0 0 l 1
 0 100 l 1xa13180
175 25 m 1xc13280
 175 75 l 1
 25 75 l 1
 25 25 l 1
 175 25 l 1xc13280
EndSplineSet
Validated: 5
EndChar

StartChar: four
Encoding: 52 52 85
Width: 500
VWidth: 0
Flags: W
HStem: 0 25<125 375> 75 25<125 200 300 375> 200 25<25 200 300 375> 275 25<100 200 300 375> 375 25<25 75> 400 25<125 200> 475 25<125 200> 575 25<225 275>
VStem: 0 25<225 375> 75 25<300 375> 100 25<25 75 425 475> 200 25<100 200 300 400 500 575> 275 25<100 200 300 575> 375 25<25 75 225 275>
LayerCount: 2
Back
Fore
SplineSet
400 200 m 1xf7bc
 300 200 l 1
 300 100 l 1
 400 100 l 1
 400 0 l 1
 100 0 l 1
 100 100 l 1
 200 100 l 1
 200 200 l 1
 0 200 l 1
 0 400 l 1
 100 400 l 1xf7bc
 100 300 l 1xf7dc
 200 300 l 1
 200 400 l 1
 100 400 l 1
 100 500 l 1
 200 500 l 1
 200 600 l 1
 300 600 l 1
 300 300 l 1
 400 300 l 1
 400 200 l 1xf7bc
375 75 m 1
 275 75 l 1
 275 225 l 1
 375 225 l 1
 375 275 l 1
 275 275 l 1
 275 575 l 1
 225 575 l 1
 225 475 l 1
 125 475 l 1
 125 425 l 1
 225 425 l 1xf7bc
 225 275 l 1
 75 275 l 1
 75 375 l 1
 25 375 l 1xfbdc
 25 225 l 1
 225 225 l 1
 225 75 l 1
 125 75 l 1
 125 25 l 1
 375 25 l 1
 375 75 l 1
EndSplineSet
Validated: 5
EndChar

StartChar: five
Encoding: 53 53 86
Width: 400
VWidth: 0
Flags: W
HStem: 0 25<125 175> 75 25<125 175> 100 25<25 75 225 275> 175 25<25 75> 275 25<225 275> 300 25<25 175> 375 25<100 175> 500 25<100 275> 575 25<25 275>
VStem: 0 25<125 175 325 575> 75 25<125 175 400 500> 100 25<25 75> 175 25<25 75 325 375> 200 25<125 275> 275 25<125 275 525 575>
LayerCount: 2
Back
Fore
SplineSet
200 300 m 1xb7c6
 300 300 l 1
 300 100 l 1
 200 100 l 1
 200 300 l 1xb7c6
275 125 m 1
 275 275 l 1
 225 275 l 1xbbc6
 225 125 l 1
 275 125 l 1
100 100 m 1xb3d6
 200 100 l 1
 200 0 l 1
 100 0 l 1
 100 100 l 1xb3d6
175 25 m 1xd3da
 175 75 l 1
 125 75 l 1
 125 25 l 1
 175 25 l 1xd3da
300 500 m 1
 100 500 l 1
 100 400 l 1
 200 400 l 1
 200 300 l 1
 0 300 l 1x97e6
 0 600 l 1
 300 600 l 1
 300 500 l 1
175 375 m 1x97ea
 75 375 l 1
 75 525 l 1
 275 525 l 1
 275 575 l 1
 25 575 l 1
 25 325 l 1
 175 325 l 1
 175 375 l 1x97ea
0 200 m 1
 100 200 l 1
 100 100 l 1
 0 100 l 1xb3d2
 0 200 l 1
75 125 m 1xb3e2
 75 175 l 1
 25 175 l 1
 25 125 l 1
 75 125 l 1xb3e2
EndSplineSet
Validated: 5
EndChar

StartChar: seven
Encoding: 55 55 87
Width: 400
VWidth: 0
Flags: W
HStem: 0 25<125 175> 275 25<125 175> 300 25<225 275> 400 25<25 75> 500 25<100 200> 575 25<25 275>
VStem: 0 25<425 575> 75 25<425 500> 100 25<25 275> 175 25<25 275> 200 25<325 500> 275 25<325 575>
LayerCount: 2
Back
Fore
SplineSet
100 300 m 1xbeb0
 200 300 l 1
 200 0 l 1
 100 0 l 1
 100 300 l 1xbeb0
175 25 m 1xded0
 175 275 l 1
 125 275 l 1
 125 25 l 1
 175 25 l 1xded0
0 600 m 1
 300 600 l 1
 300 300 l 1
 200 300 l 1
 200 500 l 1
 100 500 l 1xbf30
 100 400 l 1
 0 400 l 1
 0 600 l 1
275 325 m 1
 275 575 l 1
 25 575 l 1
 25 425 l 1
 75 425 l 1
 75 525 l 1
 225 525 l 1
 225 325 l 1
 275 325 l 1
EndSplineSet
Validated: 5
EndChar

StartChar: eight
Encoding: 56 56 88
Width: 400
VWidth: 0
Flags: W
HStem: 0 25<125 175> 75 25<125 175> 100 25<25 75 225 275> 275 25<25 75 225 275> 300 25<125 175> 375 25<125 175> 400 25<25 75 225 275> 475 25<25 75 225 275> 500 25<125 175> 575 25<125 175>
VStem: 0 25<125 275 425 475> 75 25<125 275 425 475> 100 25<25 75 325 375 525 575> 175 25<25 75 325 375 525 575> 200 25<125 275 425 475> 275 25<125 275 425 475>
LayerCount: 2
Back
Fore
SplineSet
0 500 m 1x82e9
 100 500 l 1
 100 400 l 1
 0 400 l 1
 0 500 l 1x82e9
75 425 m 1x8371
 75 475 l 1
 25 475 l 1
 25 425 l 1
 75 425 l 1x8371
200 500 m 1x82e3
 300 500 l 1
 300 400 l 1
 200 400 l 1
 200 500 l 1x82e3
275 425 m 1
 275 475 l 1
 225 475 l 1x8363
 225 425 l 1
 275 425 l 1
100 600 m 1x80eb
 200 600 l 1
 200 500 l 1
 100 500 l 1
 100 600 l 1x80eb
175 525 m 1x80ed
 175 575 l 1
 125 575 l 1
 125 525 l 1
 175 525 l 1x80ed
100 400 m 1x8a6b
 200 400 l 1
 200 300 l 1
 100 300 l 1
 100 400 l 1x8a6b
175 325 m 1x8c6d
 175 375 l 1
 125 375 l 1
 125 325 l 1
 175 325 l 1x8c6d
100 100 m 1xa06b
 200 100 l 1
 200 0 l 1
 100 0 l 1
 100 100 l 1xa06b
175 25 m 1xc06d
 175 75 l 1
 125 75 l 1
 125 25 l 1
 175 25 l 1xc06d
0 300 m 1xa869
 100 300 l 1
 100 100 l 1
 0 100 l 1
 0 300 l 1xa869
75 125 m 1xb071
 75 275 l 1
 25 275 l 1
 25 125 l 1
 75 125 l 1xb071
200 300 m 1xa863
 300 300 l 1
 300 100 l 1
 200 100 l 1
 200 300 l 1xa863
275 125 m 1
 275 275 l 1
 225 275 l 1xb063
 225 125 l 1
 275 125 l 1
EndSplineSet
Validated: 5
EndChar

StartChar: nine
Encoding: 57 57 89
Width: 400
VWidth: 0
Flags: W
HStem: 0 25<25 175> 75 25<25 175> 100 25<225 275> 200 25<125 200> 275 25<125 200> 300 25<25 75> 475 25<25 75 225 275> 500 25<125 175> 575 25<125 175>
VStem: 0 25<25 75 325 475> 75 25<325 475> 100 25<225 275 525 575> 175 25<25 75 525 575> 200 25<125 200 300 475> 275 25<125 475>
LayerCount: 2
Back
Fore
SplineSet
200 500 m 1x99d6
 300 500 l 1
 300 100 l 1
 200 100 l 1
 200 200 l 1
 100 200 l 1
 100 300 l 1xb5d6
 200 300 l 1
 200 500 l 1x99d6
275 125 m 1
 275 475 l 1
 225 475 l 1
 225 275 l 1
 125 275 l 1xbad6
 125 225 l 1
 225 225 l 1
 225 125 l 1
 275 125 l 1
100 600 m 1
 200 600 l 1
 200 500 l 1
 100 500 l 1x91d6
 100 600 l 1
175 525 m 1x91da
 175 575 l 1
 125 575 l 1
 125 525 l 1
 175 525 l 1x91da
0 100 m 1xb0c6
 200 100 l 1
 200 0 l 1
 0 0 l 1
 0 100 l 1xb0c6
175 25 m 1xd0ca
 175 75 l 1
 25 75 l 1
 25 25 l 1
 175 25 l 1xd0ca
0 500 m 1x95d2
 100 500 l 1
 100 300 l 1
 0 300 l 1
 0 500 l 1x95d2
75 325 m 1x96e2
 75 475 l 1
 25 475 l 1
 25 325 l 1
 75 325 l 1x96e2
EndSplineSet
Validated: 5
EndChar

StartChar: six
Encoding: 54 54 90
Width: 400
VWidth: 0
Flags: W
HStem: 0 25<125 175> 75 25<125 175> 100 25<25 75 225 275> 275 25<225 275> 300 25<100 175> 375 25<100 175> 475 25<25 75> 500 25<125 275> 575 25<125 275>
VStem: 0 25<125 475> 75 25<125 300 400 475> 100 25<25 75 525 575> 175 25<25 75 325 375> 200 25<125 275> 275 25<125 275 525 575>
LayerCount: 2
Back
Fore
SplineSet
100 600 m 1x85d2
 300 600 l 1
 300 500 l 1
 100 500 l 1
 100 600 l 1x85d2
275 525 m 1
 275 575 l 1
 125 575 l 1
 125 525 l 1
 275 525 l 1
100 400 m 1xade2
 200 400 l 1
 200 300 l 1
 100 300 l 1xade6
 100 100 l 1
 0 100 l 1
 0 500 l 1
 100 500 l 1xadd2
 100 400 l 1xade2
175 325 m 1xaeea
 175 375 l 1
 75 375 l 1
 75 475 l 1
 25 475 l 1
 25 125 l 1
 75 125 l 1
 75 325 l 1
 175 325 l 1xaeea
200 300 m 1xacc6
 300 300 l 1
 300 100 l 1
 200 100 l 1
 200 300 l 1xacc6
275 125 m 1
 275 275 l 1
 225 275 l 1xb4c6
 225 125 l 1
 275 125 l 1
100 100 m 1xa4d6
 200 100 l 1
 200 0 l 1
 100 0 l 1
 100 100 l 1xa4d6
175 25 m 1xc4da
 175 75 l 1
 125 75 l 1
 125 25 l 1
 175 25 l 1xc4da
EndSplineSet
Validated: 5
EndChar

StartChar: colon
Encoding: 58 58 91
Width: 300
VWidth: 0
Flags: W
HStem: 0 25<125 175> 75 25<125 175> 200 25<125 175> 275 25<125 175>
VStem: 100 25<25 75 225 275> 175 25<25 75 225 275>
LayerCount: 2
Back
Fore
SplineSet
100 300 m 1
 200 300 l 1
 200 200 l 1
 100 200 l 1
 100 300 l 1
175 225 m 1
 175 275 l 1
 125 275 l 1
 125 225 l 1
 175 225 l 1
100 100 m 1
 200 100 l 1
 200 0 l 1
 100 0 l 1
 100 100 l 1
175 25 m 1
 175 75 l 1
 125 75 l 1
 125 25 l 1
 175 25 l 1
EndSplineSet
Validated: 1
EndChar

StartChar: semicolon
Encoding: 59 59 92
Width: 300
VWidth: 0
Flags: W
HStem: -200 25<25 75> -125 25<25 75> -100 25<125 175> 75 25<125 175> 200 25<125 175> 275 25<125 175>
VStem: 0 25<-175 -125> 75 25<-175 -125> 100 25<-75 75 225 275> 175 25<-75 75 225 275>
LayerCount: 2
Back
Fore
SplineSet
100 100 m 1xbec0
 200 100 l 1
 200 -100 l 1
 100 -100 l 1
 100 100 l 1xbec0
175 -75 m 1
 175 75 l 1
 125 75 l 1
 125 -75 l 1
 175 -75 l 1
0 -200 m 1
 0 -100 l 1
 100 -100 l 1
 100 -200 l 1
 0 -200 l 1
25 -125 m 1xdf40
 25 -175 l 1
 75 -175 l 1
 75 -125 l 1
 25 -125 l 1xdf40
100 300 m 1x9ec0
 200 300 l 1
 200 200 l 1
 100 200 l 1
 100 300 l 1x9ec0
175 225 m 1
 175 275 l 1
 125 275 l 1
 125 225 l 1
 175 225 l 1
EndSplineSet
Validated: 5
EndChar

StartChar: underscore
Encoding: 95 95 93
Width: 500
VWidth: 0
Flags: W
HStem: -100 25<25 375> -25 25<25 375>
VStem: 0 25<-75 -25> 375 25<-75 -25>
LayerCount: 2
Back
Fore
SplineSet
0 0 m 5
 400 0 l 5
 400 -100 l 5
 0 -100 l 5
 0 0 l 5
375 -75 m 5
 375 -25 l 5
 25 -25 l 5
 25 -75 l 5
 375 -75 l 5
EndSplineSet
Validated: 1
EndChar

StartChar: oe
Encoding: 339 339 94
Width: 600
VWidth: 0
Flags: W
HStem: 0 25<125 175 325 475> 75 25<125 175 325 475> 100 25<25 75 225 275> 200 25<300 475> 275 25<25 75 225 300> 300 25<125 175> 375 25<125 175 325 475>
VStem: 0 25<125 275> 75 25<125 275> 100 25<25 75 325 375> 175 25<25 75 325 375> 200 25<125 275> 275 25<125 200> 300 25<25 75 300 375> 475 25<25 75 225 375>
LayerCount: 2
Back
Fore
SplineSet
100 300 m 1xb742
 100 100 l 1
 0 100 l 1
 0 300 l 1
 100 300 l 1xb742
25 125 m 1
 75 125 l 1
 75 275 l 1
 25 275 l 1xbb82
 25 125 l 1
200 300 m 1x9752
 100 300 l 1
 100 400 l 1
 200 400 l 1
 200 300 l 1x9752
125 375 m 1
 125 325 l 1
 175 325 l 1
 175 375 l 1x9762
 125 375 l 1
100 100 m 1xb352
 200 100 l 1
 200 0 l 1
 100 0 l 1
 100 100 l 1xb352
175 25 m 1xd362
 175 75 l 1
 125 75 l 1
 125 25 l 1
 175 25 l 1xd362
300 400 m 1x9b16
 500 400 l 1
 500 200 l 1
 300 200 l 1x9b0a
 300 100 l 1
 200 100 l 1
 200 300 l 1xb716
 300 300 l 1
 300 400 l 1x9b16
475 225 m 1
 475 375 l 1
 325 375 l 1
 325 275 l 1xbb06
 225 275 l 1
 225 125 l 1
 275 125 l 1xbb1a
 275 225 l 1
 475 225 l 1
300 0 m 1
 300 100 l 1
 500 100 l 1
 500 0 l 1
 300 0 l 1
475 75 m 1xd306
 325 75 l 1
 325 25 l 1
 475 25 l 1
 475 75 l 1xd306
EndSplineSet
Validated: 5
EndChar

StartChar: ae
Encoding: 230 230 95
Width: 600
VWidth: 0
Flags: W
HStem: 0 25<25 475> 75 25<300 475> 175 25<25 200> 200 25<300 475> 275 25<225 300> 300 25<125 175> 375 25<125 175 325 475>
VStem: 0 25<25 175> 100 25<325 375> 175 25<325 375> 200 25<200 275> 275 25<100 200> 300 25<300 375> 475 25<25 75 225 375>
LayerCount: 2
Back
Fore
SplineSet
200 400 m 1xc7a4
 200 300 l 1
 100 300 l 1
 100 400 l 1
 200 400 l 1xc7a4
175 325 m 1xc7c4
 175 375 l 1
 125 375 l 1
 125 325 l 1
 175 325 l 1xc7c4
300 400 m 1xcbac
 500 400 l 1
 500 200 l 1
 300 200 l 1
 300 100 l 1
 500 100 l 1
 500 0 l 1
 0 0 l 1
 0 200 l 1xdb94
 200 200 l 1
 200 300 l 1xe7b4
 300 300 l 1
 300 400 l 1xcbac
475 225 m 1
 475 375 l 1
 325 375 l 1
 325 275 l 1
 225 275 l 1
 225 175 l 1
 25 175 l 1xebac
 25 25 l 1
 475 25 l 1
 475 75 l 1
 275 75 l 1
 275 225 l 1
 475 225 l 1
EndSplineSet
Validated: 5
EndChar
